<svg xmlns="http://www.w3.org/2000/svg" width="72.05" height="120" viewBox="0 0 72.05 120"><title>BLK_icn_ideas_bulb_rgb</title><path d="M81.11,5.87C79.84,5.23,70.63,1.43,64.22.43A35.62,35.62,0,0,0,41.06,4.69a40.81,40.81,0,0,0-11.67,10.9,14.38,14.38,0,0,0-1.55,2.13c-3.21,7.14-4.41,13.92-3.64,20.59,0,.22.37,2,.4,2.23.92,6.69,3.59,11.6,8.56,17.83.28.35.89.88,1.16,1.24a40.92,40.92,0,0,1,7.6,17.67c.39,2,.4,2.16.79,4.2,0,.1.35,2.39.35,2.52,0,1.07.38,1.59.14,2.64,0,.09-.08.37-.08.45l-.17.44c-.22.68.1,1.06.83,1.1a251.85,251.85,0,0,0,31.92-.35A1.08,1.08,0,0,0,76.81,87a4.68,4.68,0,0,1,0-1.9,67.25,67.25,0,0,1,1.57-7A82.71,82.71,0,0,1,88.14,58.3l.47-.73a54,54,0,0,0,6.74-14.72,14.57,14.57,0,0,0,.52-3.26,50.41,50.41,0,0,0-.44-12.08A51.21,51.21,0,0,0,91.76,16.4,17.8,17.8,0,0,0,86.3,9.29a60.36,60.36,0,0,0-5.19-3.42m-13,53.86,0,0h0l-.06,0" transform="translate(-23.97 0)" fill="#ffce00"/><path d="M76.9,86.64c-.25.08-3-.21-6.73-.27s-8.82.12-10.12.16c-.88,0-5.93.33-10.08.39a47.53,47.53,0,0,1-6.77-.28c-1.53,1-.69,1.59-.1,3.19s-.77,6.34.76,11.11c1.26,3.9.89,5.06,1.12,11.22s6,7.5,7.78,7.72a8.79,8.79,0,0,0,1.14.11c.62,0,12.19,0,12.3,0a8.63,8.63,0,0,0,1.14-.11c1.78-.22,7.56-1.55,7.79-7.72s-.14-7.32,1.11-11.22c1.54-4.77.18-9.5.77-11.11s1.42-2.17-.11-3.19" transform="translate(-23.97 0)" fill="#ff4713"/><path d="M69.55,64.08c0-2.15.42-8.75.6-11.47,6.43-1.86,7.2-7,7.29-8.62.14-2.7-.91-5.07-2.57-5.75a4.45,4.45,0,0,0-4.51.46c-2,1.52-3.15,4.72-3.42,9.82,0,.21,0,.44,0,.68a6.73,6.73,0,0,1-3.53-.9c1.48-2.11,2.07-4.91,1.75-8.33a4.43,4.43,0,0,0-5.06-4.21,5.22,5.22,0,0,0-4.57,5.82A14.69,14.69,0,0,0,57.84,48a13.25,13.25,0,0,1-4.14.79l0-.33c0-.83-.34-6.34-2.94-8.85a4.24,4.24,0,0,0-3.68-1.2c-2.52.37-4.11,2.81-3.88,5.94a9,9,0,0,0,7.33,8.09s.11,9.26.89,13a66.43,66.43,0,0,1,.94,10.53c0,2.18.14,7.22.29,12,1.12.14,2.26.23,3.41.3-.2-5.18-.44-10.86-.59-13.43C54.86,65.11,54,52.64,54,52.64a14.53,14.53,0,0,0,6.54-1.74,9.92,9.92,0,0,0,6.15,2.21c-.32,5.22-1.11,15.42-1.23,24.06,0,3.4-.21,7.43-.39,11.07L68.47,88c.12-2.69.22-5.24.23-6.8,0-4.52.65-10,.85-17.15M72.25,42a1.07,1.07,0,0,1,.69-.23,1.8,1.8,0,0,1,.69.14,3.67,3.67,0,0,1,.28,2.59,5.53,5.53,0,0,1-3.52,4c.3-4.81,1.4-6.12,1.86-6.46M46.61,44c0-.48,0-1.6.9-1.74l.22,0a1.05,1.05,0,0,1,.78.34c1.11,1.06,1.61,4.13,1.71,5.74A5.24,5.24,0,0,1,46.61,44M60.72,45.8a10.18,10.18,0,0,1-1.8-4.63c-.12-1.31,1.48-1.52,1.5-1.53h.26a.89.89,0,0,1,1,.77,8,8,0,0,1-1,5.4" transform="translate(-23.97 0)" fill="#ff4713"/><path d="M76.87,91.89h-.09C66.34,93.7,55.37,96,45,95.67a4,4,0,0,0-1.86.25,17.23,17.23,0,0,0,.75,5c.11.33.2.63.28.93a2.65,2.65,0,0,0,1.18-.1c6.89-1.53,13.51-2.09,20.26-3.17,3.35-.54,9.67.17,11.41-2.19.06-1.73-.07-3.3-.12-4.52" transform="translate(-23.97 0)" fill="#fc9bb3"/><path d="M47.31,106.6a16.58,16.58,0,0,0-2.46.35c0,1.31,0,2.91.13,5.21,0,.16,0,.29,0,.44.4-.07,1.11-.35,2.42-.58,6.16-1.09,12.29-1.25,18.48-2.55,1.78-.38,4.45-.64,6.5-1.28a7.08,7.08,0,0,0,2.85-1.62,17.18,17.18,0,0,1,.53-4.09c-.79.26-2.42.9-3.15,1-7.52,1.36-16.27,1.91-25.34,3.09" transform="translate(-23.97 0)" fill="#fc9bb3"/></svg>