<svg version="1.2" xmlns="http://www.w3.org/2000/svg" viewBox="0 0 1000 1000" width="1000" height="1000"><defs><linearGradient id="P" gradientUnits="userSpaceOnUse"/><linearGradient id="g1" x1="973.7" y1="306.1" x2="-6.1" y2="553.8" href="#P"><stop stop-color="#585e69"/><stop offset="1" stop-color="#2a2f38"/></linearGradient><clipPath clipPathUnits="userSpaceOnUse" id="cp1"><path d="m-2.36 14.8c0-6.62 5.37-12 12-12h976c6.63 0 12 5.38 12 12v976c0 6.63-5.37 12-12 12h-976c-6.63 0-12-5.37-12-12z"/></clipPath><linearGradient id="g2" x1="185.7" y1="110.1" x2="-74.1" y2="786.8" href="#P"><stop stop-color="#fff" stop-opacity=".14"/><stop offset="1" stop-color="#fff" stop-opacity="0"/></linearGradient><linearGradient id="g3" x1="1243.6" y1="379" x2="922.8" y2="1214.6" href="#P"><stop stop-color="#fff" stop-opacity=".14"/><stop offset="1" stop-color="#fff" stop-opacity="0"/></linearGradient></defs><style>.a{fill:url(#g1)}.b{fill:url(#g2)}.c{fill:url(#g3)}.d{fill:#263238}.e{fill:#37474f}.f{fill:#455a64}.g{fill:#1a50ff}.h{opacity:.2}.i{opacity:.3}.j{opacity:.4}.k{opacity:.7;fill:#fff}.l{opacity:.5;fill:#fff}.m{fill:#fff}.n{fill:#fafafa}.o{opacity:.3;fill:#fff}</style><path class="a" d="m-1-10c0-6.6 5.4-12 12-12h977c6.6 0 12 5.4 12 12v1020c0 6.6-5.4 12-12 12h-977c-6.6 0-12-5.4-12-12z"/><g clip-path="url(#cp1)"><path class="b" d="m-74.1 786.8c-230.5 0-416.9-186.3-416.9-416.9 0-230.5 186.4-416.9 416.9-416.9 230.6 0 416.9 186.4 416.9 416.9 0 230.6-186.3 416.9-416.9 416.9z"/><path class="c" d="m922.8 1214.6c-284.7 0-514.8-230.1-514.8-514.8 0-284.7 230.1-514.8 514.8-514.8 284.7 0 514.8 230.1 514.8 514.8 0 284.7-230.1 514.8-514.8 514.8z"/><path class="d" d="m893.8 798.9c0.8-0.6 1.5-1.5 2-2.4 0.4-1 0.6-2.1 0.5-3.2v-241.8c-0.1-3-1-5.9-2.5-8.5l14.9-8.6c1.6 2.6 2.5 5.5 2.6 8.5v241.8c0.1 1-0.1 2.1-0.5 3.1-0.5 1-1.2 1.8-2.1 2.5z"/><path class="e" d="m893.8 543c-1.5-2.6-3.6-4.8-6.1-6.4l-273.7-158c-9.5-5.5-24.9-5.5-34.5 0l-5.9 3.5c-2.5 1.2-4.5 3.1-6 5.4-1.5 2.4-2.3 5.1-2.4 7.8v261.7c0.1-2.7 0.9-5.4 2.4-7.7 1.5-2.4 3.5-4.3 6-5.5l5.9-3.5c9.6-5.5 25-5.5 34.5 0l273.6 158c0.8 0.7 1.9 1.2 3 1.3 1.1 0.1 2.2-0.1 3.1-0.7 1-0.5 1.7-1.4 2.2-2.4 0.4-1 0.6-2.1 0.3-3.2v-241.8c0-3-0.9-5.9-2.4-8.5z"/><path class="f" d="m566 399.8c-2.2-6.6 0.5-13.7 7.6-17.7l5.9-3.5c9.6-5.5 25-5.5 34.6 0l273.5 158c2.6 1.6 4.7 3.8 6.1 6.4l15-8.6c-1.5-2.6-3.6-4.9-6.1-6.5l-281.1-162.2c-14.1-8.2-35.3-8.2-49.4 0l-6 3.4c-4.1 2.3-7.6 5.5-10.3 9.3-2.7 3.9-4.5 8.3-5.2 12.9q-0.3 2-0.3 4c0.1 8 3.3 15.7 9 21.5l10.8-10.3c-1.9-1.9-3.3-4.2-4.1-6.7z"/><path class="g" d="m876.3 582.6v-33.1l-274.8-158.6c-2.6-1.4-5.6-2.2-8.6-2.2-3 0-6 0.8-8.6 2.2l-3 1.7c-1.2 0.6-2.3 1.5-3 2.7-0.7 1.2-1.1 2.5-1.2 3.9v57.3z"/><path class="h" d="m876.3 582.6v-33.1l-274.8-158.6c-2.6-1.4-5.6-2.2-8.6-2.2-3 0-6 0.8-8.6 2.2l-3 1.7c-1.2 0.6-2.3 1.5-3 2.7-0.7 1.2-1.1 2.5-1.2 3.9v57.3z"/><path class="g" d="m605.3 384.4c-3.9-2-8.1-3.1-12.4-3.1-4.3 0-8.6 1.1-12.4 3.1l-2.9 1.7c-2.1 1.1-3.9 2.7-5.2 4.6-1.3 1.9-2.2 4.1-2.6 6.4q-0.1 1-0.1 2v9l7.4 7.8v-16.6c0.1-1.4 0.5-2.7 1.2-3.9 0.7-1.2 1.8-2.1 3-2.7l3-1.7c2.6-1.4 5.6-2.1 8.6-2.1 3 0 6 0.7 8.6 2.1l274.8 158.6 7.5-4.3z"/><path class="i" d="m605.3 384.4c-3.9-2-8.1-3.1-12.4-3.1-4.3 0-8.6 1.1-12.4 3.1l-2.9 1.7c-2.1 1.1-3.9 2.7-5.2 4.6-1.3 1.9-2.2 4.1-2.6 6.4q-0.1 1-0.1 2v9l7.4 7.8v-16.6c0.1-1.4 0.5-2.7 1.2-3.9 0.7-1.2 1.8-2.1 3-2.7l3-1.7c2.6-1.4 5.6-2.1 8.6-2.1 3 0 6 0.7 8.6 2.1l274.8 158.6 7.5-4.3z"/><path class="g" d="m876.3 549.5l7.5-4.3v41.2l-7.5-4.4z"/><path class="j" d="m876.3 549.5l7.5-4.3v41.2l-7.5-4.4z"/><path class="d" d="m885.9 768.6v-186.1l-274-158.4c-2.8-1.6-6-2.5-9.3-2.5-3.2 0-6.4 0.9-9.2 2.5l-7 4v177.6l291 167.9c0.8 0.5 1.8 0.7 2.8 0.7 1 0 2-0.2 2.9-0.8 0.8-0.5 1.6-1.2 2.1-2 0.5-0.9 0.7-1.9 0.7-2.9z"/><path class="g" d="m859.3 761.7l4.7-2.8c0.8-0.5 1.4-1.2 1.9-2 0.5-0.8 0.7-1.7 0.8-2.6v-191.3c-0.1-0.9-0.3-1.8-0.8-2.6-0.5-0.9-1.1-1.5-1.9-2.1l-248.1-143.2c-0.8-0.4-1.7-0.7-2.6-0.7-1 0-1.9 0.3-2.7 0.7l-4.7 2.7c-0.8 0.5-1.5 1.2-1.9 2-0.5 0.8-0.8 1.7-0.8 2.6v191.3c0 0.9 0.3 1.9 0.8 2.7 0.4 0.8 1.1 1.5 1.9 2l248 143.3c0.9 0.4 1.8 0.6 2.7 0.6 1 0 1.9-0.2 2.7-0.6z"/><path class="k" d="m859.3 761.7l4.7-2.8c0.8-0.5 1.4-1.2 1.9-2 0.5-0.8 0.7-1.7 0.8-2.6v-191.3c-0.1-0.9-0.3-1.8-0.8-2.6-0.5-0.9-1.1-1.5-1.9-2.1l-248.1-143.2c-0.8-0.4-1.7-0.7-2.6-0.7-1 0-1.9 0.3-2.7 0.7l-4.7 2.7c-0.8 0.5-1.5 1.2-1.9 2-0.5 0.8-0.8 1.7-0.8 2.6v191.3c0 0.9 0.3 1.9 0.8 2.7 0.4 0.8 1.1 1.5 1.9 2l248 143.3c0.9 0.4 1.8 0.6 2.7 0.6 1 0 1.9-0.2 2.7-0.6z"/><path class="g" d="m853.9 564.1l-248-143.2c-1.5-0.9-2.7-0.2-2.7 1.5v191.3c0 1 0.3 1.9 0.8 2.7 0.4 0.8 1.1 1.5 1.9 2l248 143.3c1.5 0.8 2.7 0.1 2.7-1.6v-191.3c0-0.9-0.3-1.8-0.8-2.6-0.4-0.9-1.1-1.6-1.9-2.1z"/><path class="g" d="m853.9 564.1l-248-143.2c-1.5-0.9-2.7-0.2-2.7 1.5v191.3c0 1 0.3 1.9 0.8 2.7 0.4 0.8 1.1 1.5 1.9 2l248 143.3c1.5 0.8 2.7 0.1 2.7-1.6v-191.3c0-0.9-0.3-1.8-0.8-2.6-0.4-0.9-1.1-1.6-1.9-2.1z"/><path class="l" d="m853.9 564.1l-248-143.2c-1.5-0.9-2.7-0.2-2.7 1.5v191.3c0 1 0.3 1.9 0.8 2.7 0.4 0.8 1.1 1.5 1.9 2l248 143.3c1.5 0.8 2.7 0.1 2.7-1.6v-191.3c0-0.9-0.3-1.8-0.8-2.6-0.4-0.9-1.1-1.6-1.9-2.1z"/><path class="m" d="m605.9 420.9c20.3 12.5 40.8 24.7 61.4 36.8l61.8 36.1 62.2 35.5 31.2 17.6 31.4 17.2-30.7-18.5-30.7-18.3-61.8-36.1-62.3-35.5c-20.7-11.8-41.5-23.4-62.5-34.8z"/><path class="g" d="m855.7 566.1l10-5.8c0.5 0.8 0.8 1.7 0.8 2.6v191.3c-0.1 1-0.3 1.9-0.8 2.7-0.4 0.8-1.1 1.5-1.9 2l-4.7 2.7c-0.7 0.4-1.5 0.6-2.3 0.7q-1.3 0-2.5-0.4c1.2 0.4 2.2-0.4 2.2-1.9v-191.3c0-0.9-0.3-1.8-0.8-2.6z"/><path class="g" d="m856.6 590.6l10.1-5.8v50l-10.1 5.8z"/><path class="h" d="m856.6 590.6l10.1-5.8v50l-10.1 5.8z"/><path class="h" d="m603.2 444.2l253.4 146.4v50l-253.4-146.4z"/><path class="f" d="m841 699.9v32.7c0 2.5-1.7 3.5-3.9 2.3l-34.3-19.6c-1.1-0.7-2.1-1.7-2.7-2.9-0.7-1.1-1.1-2.4-1.2-3.7v-32.7c0-2.5 1.8-3.5 3.9-2.3 9.4 5.4 25 14.2 34.3 19.6 1.1 0.7 2.1 1.7 2.7 2.9 0.7 1.1 1.1 2.4 1.2 3.7z"/><path class="m" d="m847.7 712.9l0.9-1.5-56.4-32.3-0.9 1.5z"/><path class="m" d="m827.4 699.7h-1.7v16.6h1.7z"/><path class="m" d="m814.2 692.4h-1.7v16.6h1.7z"/><path class="m" d="m847.7 729.6l0.9-1.5-56.4-32.3-0.9 1.5z"/><path class="f" d="m707.8 534.5c-1.5-2.8-2.2-5.9-2.1-9q0-5 2-6.5c1.3-1 3.3-0.8 5.9 0.7q1.6 0.9 2.9 2.1 1.3 1.1 2.3 2.5 0.2 0.3 0.2 0.6 0 0.2-0.1 0.4l-0.8 1.4q-0.2 0.2-0.3 0.1-0.2-0.2-0.4-0.4c-0.9-1.2-2-2.2-3.3-2.9q-2.3-1.4-3.6-0.3-0.7 0.9-1 2.1-0.4 1.1-0.2 2.3c-0.1 2.1 0.4 4.1 1.3 6 0.8 1.6 2 2.9 3.6 3.8 1 0.7 2.2 1 3.5 0.9q0.2 0 0.3 0 0.3 0.2 0.3 0.5l0.9 2.5q0 0.2 0 0.4c0 0.1 0 0.2-0.3 0.3-1.1 0.4-2.9 0-5.3-1.4-2.5-1.5-4.5-3.6-5.8-6.1z"/><path fill-rule="evenodd" class="f" d="m721.3 544.2q-0.3-0.5-0.3-1.1v-17.4q0-0.6 0.3-0.8 0.2-0.2 0.7 0.1l5.6 3.2c1.7 0.9 3.2 2.4 4.2 4.1 1 1.7 1.5 3.7 1.4 5.7 0.1 1.1-0.2 2.1-0.7 3.1q-0.3 0.6-0.8 0.8-0.6 0.3-1.2 0.3l2.3 8.1q0.1 0.2 0 0.4 0 0.6-0.4 0.3l-2.5-1.4q-0.2-0.1-0.4-0.4-0.2-0.2-0.3-0.6l-2-7.6-2.6-1.5v5.7c0 0.5 0 0.7-0.2 0.8-0.2 0.2-0.4 0-0.8-0.1l-1.6-0.9q-0.5-0.3-0.7-0.8zm5.8-6.8q1.2 0.7 1.8 0.3 0.7-0.3 0.7-1.8c0-0.9-0.2-1.8-0.6-2.6-0.4-0.7-1-1.3-1.7-1.7l-2.6-1.5v5.9z"/><path class="f" d="m735.2 552.3q-0.2-0.5-0.2-1.1v-17.4q0-0.5 0.2-0.9c0.2-0.1 0.4 0 0.8 0.2l9.1 5.2q0.5 0.3 0.8 0.7 0.2 0.5 0.1 1.1v1.1q0.1 0.4-0.1 0.8c-0.2 0.2-0.4 0-0.8-0.1l-6.5-3.7v4.6l4.6 2.6q0.4 0.2 0.7 0.7 0.2 0.5 0.2 1v1.1c0 0.4 0 0.7-0.2 0.8-0.2 0.2-0.4 0-0.7-0.1l-4.6-2.6v4.7l6.5 3.7c0.3 0.2 0.6 0.4 0.7 0.7q0.3 0.5 0.2 1.1v1c0 0.5 0 0.8-0.2 0.9-0.2 0.1-0.3 0-0.7-0.2l-9.1-5.2q-0.5-0.3-0.8-0.7z"/><path fill-rule="evenodd" class="f" d="m747.9 559.6q-0.3-0.5-0.3-1.1v-17.4q0-0.3 0.1-0.5 0-0.2 0.2-0.4c0.1-0.1 0.4 0 0.7 0.2l4.7 2.6c2.4 1.4 4.3 3.3 5.7 5.7 1.4 2.7 2.1 5.7 2 8.7q0 5.1-2 6.4-2 1.3-5.7-0.8l-4.7-2.7c-0.3-0.1-0.6-0.4-0.7-0.7zm5.5 0q2 1.1 3 0.2c0.8-1.3 1.1-2.9 0.9-4.4 0.1-1.9-0.2-3.8-0.9-5.5-0.7-1.3-1.7-2.4-3-3.2l-2.1-1.2v12.8z"/><path class="f" d="m763 568.3q-0.3-0.5-0.3-1.1v-17.4q0-0.2 0.1-0.4 0-0.3 0.2-0.4c0.1-0.2 0.4 0 0.7 0.1l1.7 0.9c0.3 0.2 0.6 0.5 0.7 0.8q0.3 0.5 0.3 1.1v17.4c0 0.4 0 0.7-0.3 0.8-0.2 0.2-0.4 0-0.7-0.1l-1.7-1q-0.5-0.2-0.7-0.7z"/><path class="f" d="m772.5 573.8q-0.2-0.5-0.2-1.1v-15.1l-3.6-2q-0.5-0.3-0.8-0.7-0.2-0.5-0.2-1.1v-1.1c0-0.4 0-0.7 0.2-0.8 0.2-0.1 0.4 0 0.8 0.1l10.8 6.3q0.5 0.2 0.8 0.7 0.2 0.5 0.2 1.1v1.1c0 0.4 0 0.7-0.2 0.8-0.2 0.1-0.4 0-0.8-0.1l-3.5-2.2v15.1c0 0.5 0 0.7-0.2 0.8-0.2 0.2-0.4 0-0.8-0.1l-1.6-0.9q-0.6-0.3-0.9-0.8z"/><path class="f" d="m791.5 582.8c-1.5-2.8-2.2-5.8-2.2-9q0-5 2-6.5c1.3-1 3.4-0.8 6 0.7q1.6 0.9 2.9 2.1 1.3 1.1 2.2 2.5 0.2 0.3 0.3 0.6 0 0.3-0.2 0.4l-0.7 1.4c0 0.1-0.2 0.2-0.3 0.1q-0.3-0.1-0.4-0.4c-0.9-1.2-2-2.2-3.4-2.9q-2.2-1.3-3.5-0.3-0.7 0.9-1.1 2.1-0.3 1.1-0.1 2.3c-0.1 2.1 0.4 4.2 1.3 6 0.8 1.6 2 2.9 3.6 3.8 1 0.7 2.2 1.1 3.4 1q0.2-0.1 0.4 0 0.2 0.2 0.3 0.5l0.9 2.4q0 0.2 0 0.4c0 0.2 0 0.2-0.3 0.3-1.1 0.5-2.9 0-5.3-1.4-2.5-1.4-4.5-3.6-5.8-6.1z"/><path fill-rule="evenodd" class="f" d="m803.7 591.6q0-0.2 0-0.4l5.7-14.8q0.1-0.3 0.4-0.5 0.1 0 0.3 0 0.1 0 0.2 0.1l1.6 1q0.4 0.1 0.6 0.4 0.2 0.5 0.3 0.9l5.7 21.4q0 0.3 0 0.5 0 0.5-0.4 0.3l-2.7-1.5q-0.2-0.2-0.4-0.4-0.2-0.3-0.3-0.7l-1-3.9-5.3-3.1-1 2.9c0 0.2-0.2 0.3-0.3 0.3-0.1 0-0.2 0-0.4-0.1l-2.7-1.6q-0.2-0.1-0.2-0.3-0.1-0.2-0.1-0.5zm9.3-1.6l-1.8-7.4-1.9 5.3z"/><path fill-rule="evenodd" class="f" d="m820.7 601.6q-0.3-0.5-0.2-1.1v-17.4q-0.1-0.2 0-0.4 0.1-0.2 0.2-0.4c0.1-0.1 0.4 0 0.7 0.1l5.6 3.2c1.8 1 3.2 2.4 4.2 4.1 1 1.7 1.5 3.7 1.4 5.7 0.1 1.1-0.1 2.2-0.7 3.1q-0.3 0.5-0.8 0.8-0.5 0.3-1.1 0.3l2.3 8.1q0 0.2 0 0.4 0 0.6-0.5 0.3l-2.4-1.4q-0.3-0.1-0.5-0.4-0.2-0.3-0.3-0.6l-2-7.6-2.6-1.5v5.6c0.1 0.3 0 0.6-0.2 0.9-0.1 0.1-0.4 0-0.8-0.2l-1.6-0.9q-0.4-0.3-0.7-0.7zm5.8-6.8q1.2 0.7 1.9 0.4 0.6-0.4 0.6-1.9c0-0.9-0.2-1.8-0.6-2.6-0.4-0.7-1-1.3-1.7-1.7l-2.6-1.5v5.9z"/><path fill-rule="evenodd" class="f" d="m834.7 609.7q-0.3-0.5-0.3-1.1v-17.4q0-0.7 0.3-0.9c0.1-0.1 0.4 0 0.7 0.2l4.6 2.6c2.4 1.4 4.4 3.3 5.8 5.7 1.3 2.7 2 5.7 1.9 8.7q0.1 5.2-1.9 6.5-2 1.3-5.7-0.9l-4.7-2.6q-0.5-0.3-0.7-0.8zm5.5 0q2 1.1 2.9 0.2c0.7-0.6 1-2 1-4.4 0.1-1.9-0.2-3.8-1-5.5-0.6-1.3-1.6-2.4-2.9-3.1l-2.1-1.3v12.8z"/><g style="opacity:.1"><path class="f" d="m707.8 534.5c-1.5-2.8-2.2-5.9-2.1-9q0-5 2-6.5c1.3-1 3.3-0.8 5.9 0.7q1.6 0.9 2.9 2.1 1.3 1.1 2.3 2.5 0.2 0.3 0.2 0.6 0 0.2-0.1 0.4l-0.8 1.4q-0.2 0.2-0.3 0.1-0.2-0.2-0.4-0.4c-0.9-1.2-2-2.2-3.3-2.9q-2.3-1.4-3.6-0.3-0.7 0.9-1 2.1-0.4 1.1-0.2 2.3c-0.1 2.1 0.4 4.1 1.3 6 0.8 1.6 2 2.9 3.6 3.8 1 0.7 2.2 1 3.5 0.9q0.2 0 0.3 0 0.3 0.2 0.3 0.5l0.9 2.5q0 0.2 0 0.4c0 0.1 0 0.2-0.3 0.3-1.1 0.4-2.9 0-5.3-1.4-2.5-1.5-4.5-3.6-5.8-6.1z"/><path fill-rule="evenodd" class="f" d="m721.3 544.2q-0.3-0.5-0.3-1.1v-17.4q0-0.6 0.3-0.8 0.2-0.2 0.7 0.1l5.6 3.2c1.7 0.9 3.2 2.4 4.2 4.1 1 1.7 1.5 3.7 1.4 5.7 0.1 1.1-0.2 2.1-0.7 3.1q-0.3 0.6-0.8 0.8-0.6 0.3-1.2 0.3l2.3 8.1q0.1 0.2 0 0.4 0 0.6-0.4 0.3l-2.5-1.4q-0.2-0.1-0.4-0.4-0.2-0.2-0.3-0.6l-2-7.6-2.6-1.5v5.7c0 0.5 0 0.7-0.2 0.8-0.2 0.2-0.4 0-0.8-0.1l-1.6-0.9q-0.5-0.3-0.7-0.8zm5.8-6.8q1.2 0.7 1.8 0.3 0.7-0.3 0.7-1.8c0-0.9-0.2-1.8-0.6-2.6-0.4-0.7-1-1.3-1.7-1.7l-2.6-1.5v5.9z"/><path class="f" d="m735.2 552.3q-0.2-0.5-0.2-1.1v-17.4q0-0.5 0.2-0.9c0.2-0.1 0.4 0 0.8 0.2l9.1 5.2q0.5 0.3 0.8 0.7 0.2 0.5 0.1 1.1v1.1q0.1 0.4-0.1 0.8c-0.2 0.2-0.4 0-0.8-0.1l-6.5-3.7v4.6l4.6 2.6q0.4 0.2 0.7 0.7 0.2 0.5 0.2 1v1.1c0 0.4 0 0.7-0.2 0.8-0.2 0.2-0.4 0-0.7-0.1l-4.6-2.6v4.7l6.5 3.7c0.3 0.2 0.6 0.4 0.7 0.7q0.3 0.5 0.2 1.1v1c0 0.5 0 0.8-0.2 0.9-0.2 0.1-0.3 0-0.7-0.2l-9.1-5.2q-0.5-0.3-0.8-0.7z"/><path fill-rule="evenodd" class="f" d="m747.9 559.6q-0.3-0.5-0.3-1.1v-17.4q0-0.3 0.1-0.5 0-0.2 0.2-0.4c0.1-0.1 0.4 0 0.7 0.2l4.7 2.6c2.4 1.4 4.3 3.3 5.7 5.7 1.4 2.7 2.1 5.7 2 8.7q0 5.1-2 6.4-2 1.3-5.7-0.8l-4.7-2.7c-0.3-0.1-0.6-0.4-0.7-0.7zm5.5 0q2 1.1 3 0.2c0.8-1.3 1.1-2.9 0.9-4.4 0.1-1.9-0.2-3.8-0.9-5.5-0.7-1.3-1.7-2.4-3-3.2l-2.1-1.2v12.8z"/><path class="f" d="m763 568.3q-0.3-0.5-0.3-1.1v-17.4q0-0.2 0.1-0.4 0-0.3 0.2-0.4c0.1-0.2 0.4 0 0.7 0.1l1.7 0.9c0.3 0.2 0.6 0.5 0.7 0.8q0.3 0.5 0.3 1.1v17.4c0 0.4 0 0.7-0.3 0.8-0.2 0.2-0.4 0-0.7-0.1l-1.7-1q-0.5-0.2-0.7-0.7z"/><path class="f" d="m772.5 573.8q-0.2-0.5-0.2-1.1v-15.1l-3.6-2q-0.5-0.3-0.8-0.7-0.2-0.5-0.2-1.1v-1.1c0-0.4 0-0.7 0.2-0.8 0.2-0.1 0.4 0 0.8 0.1l10.8 6.3q0.5 0.2 0.8 0.7 0.2 0.5 0.2 1.1v1.1c0 0.4 0 0.7-0.2 0.8-0.2 0.1-0.4 0-0.8-0.1l-3.5-2.2v15.1c0 0.5 0 0.7-0.2 0.8-0.2 0.2-0.4 0-0.8-0.1l-1.6-0.9q-0.6-0.3-0.9-0.8z"/><path class="f" d="m791.5 582.8c-1.5-2.8-2.2-5.8-2.2-9q0-5 2-6.5c1.3-1 3.4-0.8 6 0.7q1.6 0.9 2.9 2.1 1.3 1.1 2.2 2.5 0.2 0.3 0.3 0.6 0 0.3-0.2 0.4l-0.7 1.4c0 0.1-0.2 0.2-0.3 0.1q-0.3-0.1-0.4-0.4c-0.9-1.2-2-2.2-3.4-2.9q-2.2-1.3-3.5-0.3-0.7 0.9-1.1 2.1-0.3 1.1-0.1 2.3c-0.1 2.1 0.4 4.2 1.3 6 0.8 1.6 2 2.9 3.6 3.8 1 0.7 2.2 1.1 3.4 1q0.2-0.1 0.4 0 0.2 0.2 0.3 0.5l0.9 2.4q0 0.2 0 0.4c0 0.2 0 0.2-0.3 0.3-1.1 0.5-2.9 0-5.3-1.4-2.5-1.4-4.5-3.6-5.8-6.1z"/><path fill-rule="evenodd" class="f" d="m803.7 591.6q0-0.2 0-0.4l5.7-14.8q0.1-0.3 0.4-0.5 0.1 0 0.3 0 0.1 0 0.2 0.1l1.6 1q0.4 0.1 0.6 0.4 0.2 0.5 0.3 0.9l5.7 21.4q0 0.3 0 0.5 0 0.5-0.4 0.3l-2.7-1.5q-0.2-0.2-0.4-0.4-0.2-0.3-0.3-0.7l-1-3.9-5.3-3.1-1 2.9c0 0.2-0.2 0.3-0.3 0.3-0.1 0-0.2 0-0.4-0.1l-2.7-1.6q-0.2-0.1-0.2-0.3-0.1-0.2-0.1-0.5zm9.3-1.6l-1.8-7.4-1.9 5.3z"/><path fill-rule="evenodd" class="f" d="m820.7 601.6q-0.3-0.5-0.2-1.1v-17.4q-0.1-0.2 0-0.4 0.1-0.2 0.2-0.4c0.1-0.1 0.4 0 0.7 0.1l5.6 3.2c1.8 1 3.2 2.4 4.2 4.1 1 1.7 1.5 3.7 1.4 5.7 0.1 1.1-0.1 2.2-0.7 3.1q-0.3 0.5-0.8 0.8-0.5 0.3-1.1 0.3l2.3 8.1q0 0.2 0 0.4 0 0.6-0.5 0.3l-2.4-1.4q-0.3-0.1-0.5-0.4-0.2-0.3-0.3-0.6l-2-7.6-2.6-1.5v5.6c0.1 0.3 0 0.6-0.2 0.9-0.1 0.1-0.4 0-0.8-0.2l-1.6-0.9q-0.4-0.3-0.7-0.7zm5.8-6.8q1.2 0.7 1.9 0.4 0.6-0.4 0.6-1.9c0-0.9-0.2-1.8-0.6-2.6-0.4-0.7-1-1.3-1.7-1.7l-2.6-1.5v5.9z"/><path fill-rule="evenodd" class="f" d="m834.7 609.7q-0.3-0.5-0.3-1.1v-17.4q0-0.7 0.3-0.9c0.1-0.1 0.4 0 0.7 0.2l4.6 2.6c2.4 1.4 4.4 3.3 5.8 5.7 1.3 2.7 2 5.7 1.9 8.7q0.1 5.2-1.9 6.5-2 1.3-5.7-0.9l-4.7-2.6q-0.5-0.3-0.7-0.8zm5.5 0q2 1.1 2.9 0.2c0.7-0.6 1-2 1-4.4 0.1-1.9-0.2-3.8-1-5.5-0.6-1.3-1.6-2.4-2.9-3.1l-2.1-1.3v12.8z"/></g><path class="g" d="m640.1 575l9.8 5.7q1 0.6 1.6 1.7c0.4 0.7 0.6 1.5 0.7 2.3v3c0 1.4-1.1 1.9-2.3 1.3l-9.8-5.7q-1-0.6-1.6-1.7c-0.4-0.7-0.7-1.5-0.7-2.3v-2.9c0-1.5 1-2.1 2.3-1.4z"/><path class="g" d="m618.5 562.5l9.8 5.7c0.6 0.4 1.2 1 1.6 1.7 0.4 0.7 0.6 1.5 0.7 2.3v3c0 1.5-1 2-2.3 1.3l-9.8-5.6c-0.7-0.5-1.2-1.1-1.6-1.8q-0.7-1-0.7-2.2v-3c0-1.5 1-2.1 2.3-1.4z"/><path class="g" d="m742.2 654.7l-122-70.4c-2.1-1.2-3.8-0.2-3.8 2.2v3.6c0 1.4 0.4 2.7 1.1 3.8 0.7 1.2 1.6 2.2 2.7 2.9l122 70.4c2.1 1.2 3.8 0.2 3.8-2.2v-3.6c-0.1-1.4-0.5-2.7-1.1-3.8-0.7-1.2-1.6-2.1-2.7-2.9z"/><path class="f" d="m640.1 575l9.8 5.7q1 0.6 1.6 1.7c0.4 0.7 0.6 1.5 0.7 2.3v3c0 1.4-1.1 1.9-2.3 1.3l-9.8-5.7q-1-0.6-1.6-1.7c-0.4-0.7-0.7-1.5-0.7-2.3v-2.9c0-1.5 1-2.1 2.3-1.4z"/><path class="f" d="m618.5 562.5l9.8 5.7c0.6 0.4 1.2 1 1.6 1.7 0.4 0.7 0.6 1.5 0.7 2.3v3c0 1.5-1 2-2.3 1.3l-9.8-5.6c-0.7-0.5-1.2-1.1-1.6-1.8q-0.7-1-0.7-2.2v-3c0-1.5 1-2.1 2.3-1.4z"/><path class="f" d="m742.2 654.7l-122-70.4c-2.1-1.2-3.8-0.2-3.8 2.2v3.6c0 1.4 0.4 2.7 1.1 3.8 0.7 1.2 1.6 2.2 2.7 2.9l122 70.4c2.1 1.2 3.8 0.2 3.8-2.2v-3.6c-0.1-1.4-0.5-2.7-1.1-3.8-0.7-1.2-1.6-2.1-2.7-2.9z"/><path class="n" d="m618.6 528.6l0.5 0.3c0.7 0.5 1.3 1.2 1.8 2 0.4 0.9 0.6 1.8 0.7 2.7v9.6c0 1.9-1.2 2.8-2.6 2l-0.4-0.2c-0.7-0.5-1.4-1.2-1.8-2-0.4-0.8-0.7-1.7-0.7-2.7v-9.8c0.1-1.8 1.2-2.7 2.5-1.9z"/><path class="n" d="m631.6 536.1l0.4 0.2c0.8 0.6 1.4 1.3 1.8 2.1 0.5 0.9 0.7 1.8 0.7 2.7v9.6c0 1.9-1.1 2.8-2.5 2l-0.4-0.2c-0.8-0.5-1.4-1.2-1.9-2-0.4-0.9-0.6-1.8-0.6-2.7v-9.8c0-1.9 1.1-2.7 2.5-1.9z"/><path class="n" d="m644.5 543.6l0.5 0.2c0.7 0.6 1.3 1.3 1.8 2.1 0.4 0.8 0.6 1.8 0.7 2.7v9.6c0 1.8-1.2 2.7-2.6 2l-0.3-0.2c-0.8-0.5-1.5-1.2-1.9-2-0.4-0.9-0.7-1.8-0.7-2.7v-9.8c-0.1-1.9 1.1-2.7 2.5-1.9z"/><path class="n" d="m657.3 551.1l0.5 0.2c0.7 0.6 1.3 1.3 1.8 2.1 0.4 0.8 0.6 1.7 0.7 2.7v9.6c0 1.8-1.2 2.7-2.6 2l-0.4-0.2c-0.7-0.6-1.4-1.3-1.8-2.1-0.4-0.8-0.7-1.7-0.7-2.7v-9.8c0-1.8 1.1-2.6 2.5-1.8z"/><path class="n" d="m678.9 563.4l0.5 0.2c0.7 0.6 1.3 1.3 1.8 2.1 0.4 0.9 0.6 1.8 0.7 2.7v9.6c0 1.8-1.2 2.7-2.6 2l-0.4-0.2c-0.7-0.5-1.4-1.2-1.8-2-0.4-0.9-0.7-1.8-0.7-2.7v-9.8c0-1.9 1.1-2.7 2.5-1.9z"/><path class="n" d="m691.8 570.9l0.4 0.2c0.8 0.6 1.4 1.3 1.8 2.1 0.5 0.8 0.7 1.7 0.7 2.7v9.6c0 1.8-1.1 2.7-2.5 2l-0.4-0.2c-0.8-0.5-1.4-1.2-1.8-2.1-0.5-0.8-0.7-1.7-0.7-2.6v-9.9c0-1.8 1-2.6 2.5-1.8z"/><path class="n" d="m704.7 578.3l0.4 0.3c0.8 0.5 1.4 1.3 1.8 2.1 0.5 0.8 0.7 1.7 0.7 2.7v9.6c0 1.8-1.1 2.7-2.5 2l-0.4-0.2c-0.8-0.6-1.4-1.3-1.8-2.1-0.5-0.8-0.7-1.7-0.7-2.6v-9.9c0-1.8 1.1-2.7 2.5-1.9z"/><path class="n" d="m717.5 585.8l0.5 0.3c0.8 0.5 1.4 1.2 1.8 2.1 0.4 0.8 0.7 1.7 0.7 2.6v9.8c0 1.8-1.1 2.7-2.5 1.9l-0.4-0.2c-0.8-0.5-1.4-1.2-1.9-2-0.4-0.8-0.6-1.7-0.6-2.7v-9.8c0-1.9 1.2-2.8 2.4-2z"/><path class="n" d="m739.1 598.1l0.5 0.3c0.8 0.5 1.4 1.3 1.8 2.1 0.5 0.8 0.7 1.7 0.7 2.7v9.6c0 1.8-1.1 2.7-2.5 2l-0.4-0.2c-0.8-0.6-1.4-1.3-1.9-2.1-0.4-0.8-0.6-1.7-0.6-2.6v-9.8c0-1.9 1.1-2.8 2.4-2z"/><path class="n" d="m752.1 605.6l0.5 0.3c0.7 0.5 1.4 1.3 1.8 2.1 0.4 0.8 0.7 1.7 0.7 2.7v9.6c0 1.8-1.1 2.7-2.6 2l-0.3-0.2c-0.8-0.6-1.4-1.3-1.9-2.1-0.4-0.8-0.7-1.7-0.7-2.7v-9.8c-0.1-1.8 1-2.7 2.5-1.9z"/><path class="n" d="m764.9 613.1l0.4 0.3c0.8 0.5 1.4 1.2 1.9 2.1 0.4 0.8 0.6 1.7 0.7 2.6v9.6c0 1.9-1.2 2.8-2.6 2l-0.4-0.2c-0.7-0.5-1.4-1.2-1.8-2-0.5-0.9-0.7-1.8-0.7-2.7v-9.8c0-1.9 1.1-2.7 2.5-1.9z"/><path class="n" d="m777.8 620.6l0.4 0.3c0.8 0.5 1.4 1.2 1.9 2 0.4 0.9 0.6 1.8 0.6 2.7v9.6c0 1.9-1.1 2.7-2.5 2l-0.4-0.2c-0.7-0.5-1.4-1.2-1.8-2-0.5-0.8-0.7-1.8-0.7-2.7v-9.8c0-1.9 1.1-2.7 2.5-1.9z"/><path class="n" d="m799.4 632.9l0.4 0.3c0.8 0.5 1.4 1.2 1.9 2.1 0.4 0.8 0.6 1.7 0.6 2.7v9.5c0 1.9-1.1 2.8-2.5 2l-0.4-0.2c-0.7-0.5-1.4-1.2-1.8-2-0.5-0.8-0.7-1.8-0.7-2.7v-9.8c0-1.8 1.1-2.7 2.5-1.9z"/><path class="n" d="m812.3 640.4l0.4 0.3c0.8 0.5 1.4 1.2 1.8 2.1 0.5 0.8 0.7 1.7 0.7 2.6v9.7c0 1.8-1.1 2.7-2.5 1.9l-0.4-0.2c-0.8-0.5-1.4-1.2-1.8-2-0.5-0.8-0.7-1.7-0.7-2.7v-9.8c0-1.9 1.1-2.7 2.5-1.9z"/><path class="n" d="m825.1 647.9l0.5 0.2c0.7 0.6 1.4 1.3 1.8 2.1 0.4 0.8 0.7 1.8 0.7 2.7v9.6c0 1.9-1.1 2.7-2.6 2l-0.3-0.2c-0.8-0.5-1.4-1.2-1.9-2.1-0.4-0.8-0.7-1.7-0.7-2.6v-9.8c0-1.9 1.3-2.7 2.5-1.9z"/><path class="n" d="m838 655.3l0.5 0.3c0.7 0.6 1.4 1.3 1.8 2.1 0.4 0.8 0.7 1.8 0.7 2.7v9.6c0 1.8-1.2 2.7-2.6 2l-0.4-0.2c-0.7-0.5-1.4-1.2-1.8-2.1-0.4-0.8-0.7-1.7-0.7-2.6v-9.8c0-1.9 1.1-2.7 2.5-2z"/><path class="o" d="m872.5 770.3c0 5.4-3.8 7.7-8.6 5l-233.7-134.9c-2.5-1.6-4.6-3.8-6.1-6.4-1.5-2.6-2.3-5.5-2.5-8.5v-130.3l250.9 144.8z"/><path class="e" d="m559.3 678.5l195.4 204.6c2 2.1 4 2.8 5.1 2 1.2-0.8 1.7-2.3 1.7-4.8v-241.6c-0.1-3.1-0.8-6.1-1.9-8.9-1.2-3-2.9-5.9-5-8.3l-195.3-204.7c-5.7-5.8-8.9-13.5-9-21.5v261.7c0.1 8 3.3 15.7 9 21.5z"/><path class="f" d="m564.3 446.2c-0.3 0-0.6-0.1-0.7-0.3-0.2-0.2-0.3-0.4-0.3-0.7v-3q0-0.3 0.2-0.5 0.1-0.3 0.4-0.4 0.3-0.1 0.6-0.1 0.3 0.1 0.5 0.3l2 2.2q0.1 0.1 0.2 0.3 0.1 0.2 0.1 0.4 0 0.2-0.1 0.4-0.1 0.2-0.2 0.3-0.2 0.1-0.3 0.2-0.2 0.1-0.4 0.1-0.2 0-0.4-0.1-0.2-0.1-0.3-0.2l-0.4-0.4v0.4q0 0.2 0 0.4-0.1 0.2-0.2 0.4-0.2 0.1-0.3 0.2-0.2 0.1-0.4 0.1z"/><path class="f" d="m747.6 843.7q-0.4-0.1-0.7-0.3-0.3-0.3-0.3-0.7v-5.9q0-0.4 0.3-0.7c0.2-0.2 0.4-0.3 0.7-0.3 0.3 0 0.5 0.1 0.7 0.3q0.3 0.3 0.3 0.7v5.9q0 0.4-0.3 0.7c-0.2 0.2-0.4 0.3-0.7 0.3zm0-15.7c-0.3 0-0.5-0.1-0.7-0.3q-0.3-0.3-0.3-0.7v-5.9q0-0.4 0.3-0.7c0.2-0.1 0.4-0.3 0.7-0.3 0.3 0 0.5 0.2 0.7 0.3q0.3 0.3 0.3 0.7v5.9q0 0.4-0.3 0.7c-0.2 0.2-0.4 0.3-0.7 0.3zm0-15.7c-0.3 0-0.5-0.1-0.7-0.3q-0.3-0.3-0.3-0.7v-5.8q0-0.4 0.3-0.7c0.2-0.2 0.4-0.3 0.7-0.3 0.3 0 0.5 0.1 0.7 0.3q0.3 0.3 0.3 0.7v5.8q0 0.2-0.1 0.4 0 0.2-0.2 0.4-0.1 0.1-0.3 0.2-0.2 0.1-0.4 0.1zm0-15.7c-0.3 0-0.5-0.1-0.7-0.3q-0.3-0.3-0.3-0.7v-6q0-0.4 0.3-0.7c0.2-0.2 0.4-0.3 0.7-0.3 0.3 0 0.5 0.1 0.7 0.3q0.3 0.3 0.3 0.7v6q0 0.2-0.1 0.4 0 0.2-0.2 0.3-0.1 0.2-0.3 0.3-0.2 0-0.4 0zm0-15.6c-0.3 0-0.5-0.2-0.7-0.3q-0.3-0.3-0.3-0.7v-6q0-0.4 0.3-0.7c0.2-0.2 0.4-0.3 0.7-0.3 0.3 0 0.5 0.1 0.7 0.3q0.3 0.3 0.3 0.7v6q0 0.2-0.1 0.3 0 0.2-0.2 0.4-0.1 0.1-0.3 0.2-0.2 0.1-0.4 0.1zm0-15.7c-0.3 0-0.5-0.1-0.7-0.3q-0.3-0.3-0.3-0.7v-5.9q0-0.4 0.3-0.7 0.3-0.3 0.7-0.3c0.3 0 0.5 0.1 0.7 0.3q0.3 0.3 0.3 0.7v5.9q0 0.2-0.1 0.4 0 0.2-0.2 0.3-0.1 0.2-0.3 0.3-0.2 0-0.4 0zm0-15.6c-0.3 0-0.5-0.1-0.7-0.3q-0.3-0.3-0.3-0.7v-5.9q0-0.4 0.3-0.7 0.3-0.3 0.7-0.3c0.3 0 0.5 0.1 0.7 0.3q0.3 0.3 0.3 0.7v5.9q0 0.2-0.1 0.4 0 0.2-0.2 0.3-0.1 0.1-0.3 0.2-0.2 0.1-0.4 0.1zm0-15.7q-0.4 0-0.7-0.3-0.3-0.2-0.3-0.7v-5.9q0-0.4 0.3-0.7 0.3-0.3 0.7-0.3c0.3 0 0.5 0.1 0.7 0.3q0.3 0.3 0.3 0.7v5.9q0 0.2-0.1 0.4 0 0.2-0.2 0.4-0.1 0.1-0.3 0.2-0.2 0.1-0.4 0.1zm0-15.7q-0.4 0-0.7-0.3-0.3-0.3-0.3-0.7v-5.9q0-0.4 0.3-0.7c0.2-0.2 0.4-0.3 0.7-0.3 0.3 0 0.5 0.1 0.7 0.3q0.3 0.3 0.3 0.7v5.9q0 0.2-0.1 0.4 0 0.2-0.2 0.3-0.1 0.2-0.3 0.3-0.2 0-0.4 0zm0-15.6q-0.4-0.1-0.7-0.3-0.3-0.3-0.3-0.7v-5.9q0-0.4 0.3-0.7c0.2-0.2 0.4-0.3 0.7-0.3 0.3 0 0.5 0.1 0.7 0.3q0.3 0.3 0.3 0.7v5.9q0 0.2-0.1 0.4 0 0.1-0.2 0.3-0.1 0.1-0.3 0.2-0.2 0.1-0.4 0.1zm0-15.7q-0.4 0-0.7-0.3-0.3-0.3-0.3-0.7v-5.9q0-0.4 0.3-0.7c0.2-0.2 0.4-0.3 0.7-0.3 0.3 0 0.5 0.1 0.7 0.3q0.3 0.3 0.3 0.7v5.9q0 0.2-0.1 0.4 0 0.2-0.2 0.3-0.1 0.2-0.3 0.3-0.2 0.1-0.4 0.1zm0-15.7c-0.3 0-0.5-0.1-0.7-0.3q-0.3-0.3-0.3-0.7v-5.9q0-0.4 0.3-0.7c0.2-0.2 0.4-0.3 0.7-0.3 0.3 0 0.5 0.1 0.7 0.3q0.3 0.3 0.3 0.7v6q0 0.4-0.3 0.6-0.3 0.3-0.7 0.3zm0-15.7c-0.3 0-0.5-0.1-0.7-0.3q-0.3-0.3-0.3-0.7v-5.8q0-0.5 0.3-0.7c0.2-0.2 0.4-0.3 0.7-0.3 0.3 0 0.5 0.1 0.7 0.3q0.3 0.2 0.3 0.7v5.8q0 0.2-0.1 0.4 0 0.2-0.2 0.4-0.1 0.1-0.3 0.2-0.2 0.1-0.4 0.1zm0-15.8q-0.2 0-0.4 0-0.2-0.1-0.3-0.2-0.1-0.2-0.2-0.3-0.1-0.2-0.1-0.4-0.1-1.9-0.9-3.6-0.3-0.9-0.7-1.6 0-0.1-0.1-0.3 0-0.2 0.1-0.4 0-0.2 0.2-0.3 0.1-0.2 0.3-0.3 0.2-0.1 0.4-0.1 0.2 0 0.3 0.1 0.2 0 0.4 0.1 0.1 0.2 0.2 0.4 0.4 0.7 0.8 1.7 0.8 2 1 4.1c0 0.3-0.1 0.6-0.3 0.8q-0.3 0.3-0.7 0.3zm-8-12.8q-0.4-0.1-0.7-0.4l-4-4.2q-0.3-0.3-0.3-0.7c0.1-0.3 0.2-0.5 0.4-0.7q0.3-0.3 0.7-0.3 0.4 0 0.7 0.3l4 4.3q0.1 0.1 0.2 0.3 0.1 0.2 0.1 0.4 0 0.2-0.1 0.4-0.1 0.1-0.2 0.3-0.2 0.1-0.4 0.2-0.2 0.1-0.5 0.1zm-10.8-11.4c-0.2 0-0.5-0.1-0.7-0.3l-4-4.2q-0.2-0.3-0.2-0.7 0-0.4 0.3-0.7 0.3-0.2 0.7-0.3 0.4 0 0.7 0.3l3.9 4.3q0.3 0.2 0.3 0.5 0 0.3-0.1 0.5-0.1 0.3-0.3 0.5-0.3 0.1-0.6 0.1zm-10.8-11.3q-0.2 0-0.4-0.1-0.2-0.1-0.3-0.2l-4-4.3q-0.1-0.1-0.2-0.3-0.1-0.2-0.1-0.4 0-0.2 0.1-0.4 0.1-0.1 0.2-0.3 0.1-0.1 0.3-0.2 0.2-0.1 0.4-0.1 0.2 0 0.4 0.1 0.2 0.1 0.3 0.2l4 4.3q0.2 0.2 0.2 0.5 0.1 0.3 0 0.6-0.1 0.2-0.4 0.4-0.2 0.2-0.5 0.2zm-10.9-11.4q-0.2 0.1-0.4 0-0.3 0-0.4-0.2l-4-4.2q-0.2-0.2-0.2-0.4-0.1-0.2-0.1-0.4 0-0.2 0.1-0.3 0-0.2 0.2-0.4 0.1-0.1 0.3-0.2 0.2-0.1 0.4-0.1 0.2 0 0.4 0.1 0.2 0.1 0.3 0.2l4 4.3q0.1 0.1 0.2 0.3 0.1 0.2 0.1 0.4 0 0.2-0.1 0.4-0.1 0.2-0.2 0.3-0.3 0.2-0.6 0.3zm-10.9-11.3q-0.4-0.1-0.7-0.4l-4-4.2q-0.2-0.3-0.2-0.7 0-0.4 0.3-0.7 0.3-0.3 0.7-0.3c0.2 0 0.5 0.1 0.7 0.3l4 4.3q0.1 0.1 0.2 0.3 0.1 0.2 0.1 0.4 0 0.2-0.1 0.4-0.1 0.1-0.2 0.3-0.3 0.3-0.8 0.3zm-10.8-11.4q-0.4 0-0.7-0.3l-4-4.3q-0.2-0.3-0.2-0.7 0-0.3 0.3-0.6 0.3-0.3 0.7-0.3 0.3 0 0.6 0.3l4 4.2q0.2 0.2 0.2 0.3 0.1 0.2 0.1 0.4 0 0.2-0.1 0.4 0 0.2-0.2 0.3-0.1 0.2-0.3 0.3-0.2 0-0.5 0zm-10.8-11.3q-0.2 0-0.4-0.1-0.2-0.1-0.3-0.2l-4-4.3q-0.1-0.1-0.2-0.3-0.1-0.2-0.1-0.4 0-0.2 0.1-0.4 0-0.2 0.2-0.4 0.1-0.1 0.3-0.2 0.2 0 0.4 0 0.2 0 0.4 0.1 0.2 0.1 0.3 0.2l4 4.3q0.2 0.1 0.2 0.3 0.1 0.2 0.1 0.4 0 0.2-0.1 0.4 0 0.1-0.2 0.3-0.1 0.1-0.3 0.2-0.2 0.1-0.5 0.1zm-10.8-11.4q-0.2 0-0.4-0.1-0.2 0-0.3-0.2l-4-4.2q-0.2-0.2-0.2-0.4-0.1-0.2-0.1-0.4 0-0.2 0.1-0.3 0.1-0.2 0.2-0.4 0.2-0.1 0.4-0.2 0.1 0 0.3 0 0.2 0 0.4 0.1 0.2 0 0.3 0.2l4 4.2q0.2 0.2 0.2 0.4 0.1 0.1 0.1 0.3 0 0.2-0.1 0.4 0 0.2-0.2 0.3-0.1 0.2-0.3 0.3-0.3 0-0.5 0zm-10.8-11.3q-0.4 0-0.7-0.3l-4-4.3q-0.2-0.1-0.2-0.3-0.1-0.2-0.1-0.4 0-0.2 0.1-0.4 0-0.2 0.2-0.3 0.1-0.1 0.3-0.2 0.2-0.1 0.4-0.1 0.2 0 0.4 0.1 0.1 0.1 0.3 0.2l4 4.3q0.1 0.1 0.2 0.3 0.1 0.2 0.1 0.4 0 0.2-0.1 0.3-0.1 0.2-0.2 0.4-0.2 0.1-0.4 0.2-0.2 0.1-0.4 0.1zm-10.9-11.3q-0.2 0-0.4-0.1-0.2-0.1-0.3-0.2l-4-4.3q-0.1-0.1-0.2-0.3-0.1-0.2-0.1-0.4 0-0.2 0.1-0.3 0.1-0.2 0.2-0.4 0.1-0.1 0.3-0.2 0.2-0.1 0.4-0.1 0.2 0 0.4 0.1 0.2 0.1 0.3 0.2l4 4.3q0.1 0.1 0.2 0.3 0.1 0.2 0.1 0.4 0 0.2-0.1 0.4-0.1 0.2-0.2 0.3-0.1 0.1-0.3 0.2-0.2 0.1-0.4 0.1zm-10.8-11.3c-0.3 0-0.6-0.2-0.8-0.3l-3.9-4.4q-0.2-0.1-0.3-0.3 0-0.2 0-0.4 0-0.2 0-0.3 0.1-0.2 0.3-0.4 0.1-0.1 0.3-0.2 0.2-0.1 0.4-0.1 0.2 0 0.4 0.1 0.1 0.1 0.3 0.2l4 4.3q0.1 0.1 0.2 0.3 0.1 0.2 0.1 0.4 0 0.2-0.1 0.4-0.1 0.2-0.2 0.3-0.3 0.3-0.7 0.3zm-10.9-11.3q-0.2 0-0.3-0.1-0.2-0.1-0.4-0.3l-4-4.2c-0.1-0.2-0.2-0.5-0.2-0.7q0-0.4 0.3-0.7 0.3-0.3 0.7-0.3 0.4 0 0.7 0.3l4 4.3q0.1 0.1 0.2 0.3 0.1 0.2 0.1 0.4 0 0.2-0.1 0.3-0.1 0.2-0.2 0.4-0.3 0.2-0.8 0.2zm-10.8-11.3q-0.4-0.1-0.7-0.4l-4-4.2q-0.3-0.3-0.3-0.7 0.1-0.4 0.3-0.7 0.3-0.3 0.8-0.3c0.2 0 0.5 0.1 0.7 0.3l3.9 4.3q0.2 0.1 0.3 0.3 0 0.2 0 0.4 0 0.2 0 0.4-0.1 0.1-0.3 0.3-0.1 0.1-0.3 0.2-0.2 0-0.4 0zm-10.8-11.4q-0.2 0-0.4 0-0.2-0.1-0.3-0.3l-4-4.2q-0.2-0.2-0.2-0.3-0.1-0.2-0.1-0.4 0-0.2 0.1-0.4 0-0.2 0.2-0.3 0.1-0.2 0.3-0.2 0.2-0.1 0.4-0.1 0.2 0 0.4 0.1 0.2 0 0.3 0.2l4 4.2q0.1 0.2 0.2 0.4 0.1 0.1 0.1 0.3 0 0.2-0.1 0.4-0.1 0.2-0.2 0.3-0.2 0.2-0.3 0.2-0.2 0.1-0.4 0.1zm-10.8-11.4q-0.2 0-0.4 0-0.2-0.1-0.4-0.3l-3.9-4.2q-0.3-0.3-0.3-0.7 0-0.5 0.3-0.7 0.3-0.3 0.7-0.3 0.4 0 0.7 0.3l4 4.2q0.1 0.2 0.2 0.4 0.1 0.2 0.1 0.4 0 0.2-0.1 0.3-0.1 0.2-0.2 0.4-0.3 0.2-0.7 0.2zm-10.9-11.4q-0.2 0-0.3 0-0.2-0.1-0.4-0.3l-4-4.2q-0.1-0.2-0.2-0.3-0.1-0.2 0-0.4-0.1-0.2 0-0.4 0.1-0.2 0.2-0.3 0.2-0.2 0.4-0.3 0.1 0 0.3 0 0.2 0 0.4 0 0.2 0.1 0.3 0.3l4 4.2q0.2 0.1 0.2 0.3 0.1 0.2 0.1 0.4 0 0.2-0.1 0.4 0 0.2-0.2 0.3-0.3 0.3-0.7 0.3z"/><path class="f" d="m747.6 856.5q-0.4 0-0.7-0.3l-2-2.2q-0.2-0.1-0.2-0.3-0.1-0.2-0.1-0.4 0-0.2 0.1-0.4 0.1-0.2 0.2-0.3 0.2-0.1 0.4-0.2 0.1-0.1 0.3-0.1 0.2 0 0.4 0.1 0.2 0.1 0.3 0.2l0.4 0.4v-0.5q0-0.4 0.3-0.7c0.2-0.2 0.4-0.3 0.7-0.3 0.2 0 0.5 0.1 0.7 0.3 0.2 0.2 0.3 0.4 0.3 0.7v3q0 0.3-0.2 0.6-0.2 0.2-0.4 0.3-0.3 0.1-0.5 0.1z"/><path class="f" d="m738.5 847q-0.2 0-0.3-0.1-0.2 0-0.4-0.2l-4.2-4.4q-0.3-0.3-0.3-0.7 0-0.4 0.3-0.7 0.2-0.2 0.3-0.2 0.2-0.1 0.4-0.1 0.2 0 0.4 0.1 0.2 0 0.3 0.2l4.2 4.4q0.2 0.1 0.3 0.3 0 0.2 0 0.4 0 0.2 0 0.4-0.1 0.1-0.3 0.3-0.2 0.3-0.7 0.3zm-11.2-11.7q-0.2 0-0.3-0.1-0.2-0.1-0.4-0.2l-4.2-4.4q-0.3-0.3-0.2-0.7c0-0.3 0.1-0.5 0.3-0.7q0.3-0.3 0.7-0.3 0.4 0 0.7 0.3l4.2 4.4q0.1 0.1 0.2 0.3 0.1 0.2 0.1 0.4 0 0.2-0.1 0.4-0.1 0.2-0.2 0.3-0.3 0.3-0.8 0.3zm-11-11.7q-0.3 0-0.4-0.1-0.2-0.1-0.4-0.2l-4.2-4.4q-0.1-0.2-0.2-0.4 0-0.1 0-0.3 0-0.2 0-0.4 0.1-0.2 0.2-0.3 0.2-0.2 0.4-0.3 0.2 0 0.4 0 0.2 0 0.3 0 0.2 0.1 0.4 0.3l4.1 4.3q0.2 0.2 0.3 0.4 0 0.1 0 0.3 0 0.2 0 0.4-0.1 0.2-0.3 0.4-0.2 0.2-0.6 0.3zm-11.3-11.8q-0.2 0-0.4-0.1-0.2-0.1-0.3-0.2l-4.2-4.4q-0.3-0.4-0.3-0.7 0-0.4 0.3-0.7 0.3-0.3 0.7-0.3 0.4 0 0.7 0.3l4.2 4.4q0.1 0.1 0.2 0.3 0.1 0.2 0.1 0.4 0 0.2-0.1 0.4-0.1 0.2-0.2 0.3-0.3 0.3-0.7 0.3zm-11.2-11.8q-0.4 0-0.7-0.3l-4.2-4.4q-0.2-0.1-0.3-0.3 0-0.2 0-0.4 0-0.2 0-0.3 0.1-0.2 0.3-0.4 0.1-0.1 0.3-0.2 0.2-0.1 0.4-0.1 0.2 0 0.3 0.1 0.2 0.1 0.4 0.2l4.2 4.4q0.1 0.2 0.2 0.4 0 0.2 0 0.4 0 0.2 0 0.3-0.1 0.2-0.2 0.4-0.3 0.3-0.7 0.3zm-11.2-11.7q-0.4 0-0.7-0.3l-4.2-4.4q-0.2-0.1-0.3-0.3-0.1-0.2-0.1-0.4 0-0.2 0.1-0.4 0.1-0.2 0.2-0.4 0.2-0.1 0.4-0.2 0.2 0 0.4 0 0.2 0 0.4 0.1 0.2 0.1 0.3 0.2l4.2 4.4q0.1 0.2 0.2 0.3 0.1 0.2 0.1 0.4 0 0.2-0.1 0.4-0.1 0.2-0.2 0.3-0.1 0.2-0.3 0.3-0.2 0.1-0.4 0.1zm-11.2-11.7q-0.2 0-0.4-0.1-0.2-0.1-0.3-0.2l-4.3-4.4q-0.1-0.2-0.2-0.3-0.1-0.2-0.1-0.4 0-0.2 0.1-0.4 0.1-0.2 0.2-0.3 0.2-0.2 0.3-0.3 0.2 0 0.4 0 0.2 0 0.4 0 0.2 0.1 0.3 0.3l4.2 4.4q0.2 0.1 0.2 0.3 0.1 0.2 0.1 0.4 0 0.2-0.1 0.3 0 0.2-0.2 0.4-0.2 0.3-0.6 0.3zm-11.2-11.7q-0.2 0-0.4-0.1-0.2 0-0.3-0.2l-4.2-4.4c-0.2-0.2-0.3-0.4-0.3-0.7q0-0.4 0.3-0.7 0.3-0.3 0.7-0.3 0.4 0.1 0.7 0.3l4.2 4.4q0.2 0.2 0.2 0.4 0.1 0.1 0.1 0.3 0 0.2-0.1 0.4 0 0.2-0.2 0.3-0.1 0.2-0.3 0.3-0.2 0.1-0.4 0.1zm-11.2-11.7q-0.2 0-0.4-0.1-0.2-0.1-0.3-0.2l-4.2-4.4q-0.2-0.2-0.3-0.3 0-0.2 0-0.4 0-0.2 0-0.4 0.1-0.2 0.3-0.4 0.1-0.1 0.3-0.2 0.2-0.1 0.4 0 0.2 0 0.4 0.1 0.2 0.1 0.3 0.2l4.2 4.4q0.2 0.1 0.2 0.3 0.1 0.2 0.1 0.4 0 0.2-0.1 0.4 0 0.2-0.2 0.3-0.1 0.2-0.3 0.3-0.2 0.1-0.4 0.1zm-11.2-11.7q-0.4-0.1-0.7-0.4l-4.2-4.4q-0.3-0.3-0.2-0.7 0-0.4 0.3-0.6 0.3-0.3 0.6-0.3 0.4 0 0.7 0.3l4.2 4.4q0.2 0.2 0.2 0.4 0.1 0.1 0.1 0.3 0 0.2-0.1 0.4 0 0.2-0.2 0.4-0.1 0.1-0.3 0.2-0.2 0-0.4 0zm-11.2-11.6q-0.4 0-0.7-0.3l-4.2-4.4q-0.2-0.2-0.3-0.3 0-0.2 0-0.4 0-0.2 0-0.4 0.1-0.2 0.3-0.3 0.1-0.2 0.3-0.2 0.2-0.1 0.4-0.1 0.2 0 0.3 0.1 0.2 0 0.4 0.2l4.2 4.4q0.2 0.2 0.2 0.5 0.1 0.3 0 0.6-0.2 0.2-0.4 0.4-0.3 0.2-0.6 0.2zm-11.1-11.7q-0.2 0-0.4-0.1-0.2-0.1-0.3-0.2l-4.2-4.4q-0.2-0.2-0.3-0.4-0.1-0.1-0.1-0.4 0-0.2 0.1-0.3 0.1-0.2 0.3-0.4 0.1-0.1 0.3-0.2 0.2-0.1 0.4-0.1 0.2 0.1 0.4 0.1 0.2 0.1 0.3 0.3l4.2 4.4q0.2 0.1 0.2 0.3 0.1 0.2 0.1 0.4 0 0.2-0.1 0.4 0 0.2-0.2 0.3-0.1 0.1-0.3 0.2-0.2 0.1-0.4 0.1zm-11.2-11.7q-0.4 0-0.7-0.3l-4.2-4.4q-0.2-0.2-0.2-0.4-0.1-0.2-0.1-0.3 0-0.2 0.1-0.4 0-0.2 0.2-0.4 0.1-0.1 0.3-0.2 0.2 0 0.4-0.1 0.2 0.1 0.4 0.1 0.1 0.1 0.3 0.2l4.2 4.4q0.1 0.2 0.2 0.4 0.1 0.1 0.1 0.3 0 0.2-0.1 0.4-0.1 0.2-0.2 0.3-0.3 0.3-0.7 0.3zm-11.2-11.7q-0.2 0-0.4-0.1-0.2-0.1-0.3-0.2l-4.2-4.4q-0.2-0.1-0.2-0.3-0.1-0.2-0.1-0.4 0-0.2 0.1-0.4 0.1-0.2 0.2-0.3 0.2-0.2 0.4-0.2 0.1-0.1 0.3-0.1 0.2 0 0.4 0.1 0.2 0.1 0.3 0.2l4.2 4.4q0.2 0.2 0.2 0.3 0.1 0.2 0.1 0.4 0 0.2-0.1 0.4 0 0.2-0.2 0.3-0.3 0.3-0.7 0.3zm-11.2-11.8q-0.2 0-0.4 0-0.2-0.1-0.3-0.3l-4.2-4.4q-0.2-0.1-0.2-0.3-0.1-0.2-0.1-0.4 0-0.2 0-0.4 0.1-0.2 0.3-0.3 0.1-0.2 0.3-0.2 0.2-0.1 0.4-0.1 0.2 0 0.4 0.1 0.2 0.1 0.3 0.3l4.2 4.4q0.2 0.1 0.3 0.3 0 0.2 0 0.4 0 0.2 0 0.3-0.1 0.2-0.3 0.4-0.3 0.2-0.7 0.2zm-11.2-11.7q-0.4 0-0.7-0.3l-1.3-1.4q-1.5-1.6-2.7-3.5-0.1-0.1-0.1-0.3-0.1-0.2 0-0.4 0-0.2 0.2-0.4 0.1-0.1 0.2-0.2 0.2-0.1 0.4-0.2 0.2 0 0.4 0 0.2 0.1 0.4 0.2 0.1 0.1 0.2 0.3 1.1 1.7 2.4 3.1l1.3 1.4q0.2 0.1 0.3 0.3 0 0.2 0 0.4 0 0.2 0 0.4-0.1 0.2-0.3 0.3-0.1 0.1-0.3 0.2-0.2 0.1-0.4 0.1zm-6.4-14.4c-0.2 0-0.5-0.1-0.7-0.3-0.2-0.2-0.3-0.4-0.3-0.7v-6c0-0.2 0.1-0.5 0.3-0.7 0.2-0.1 0.5-0.2 0.7-0.2 0.3 0 0.5 0.1 0.7 0.2 0.2 0.2 0.3 0.5 0.3 0.7v6q0 0.4-0.3 0.7c-0.2 0.2-0.4 0.3-0.7 0.3zm0-16.2q-0.4 0-0.7-0.3-0.3-0.3-0.3-0.7v-6.1c0-0.3 0.1-0.5 0.3-0.7 0.2-0.2 0.5-0.3 0.7-0.3 0.3 0 0.5 0.1 0.7 0.3 0.2 0.2 0.3 0.4 0.3 0.7v6.1q0 0.4-0.3 0.7c-0.2 0.1-0.4 0.2-0.7 0.2zm0-16.2c-0.2 0-0.5-0.1-0.7-0.3-0.2-0.2-0.3-0.4-0.3-0.7v-6.1q0-0.4 0.3-0.7 0.3-0.2 0.7-0.2c0.3 0 0.5 0.1 0.7 0.2 0.2 0.2 0.3 0.5 0.3 0.7v6.1q0 0.4-0.3 0.7c-0.2 0.2-0.4 0.3-0.7 0.3zm0-16.2c-0.2 0-0.5-0.1-0.7-0.3-0.2-0.2-0.3-0.5-0.3-0.7v-6.1q0-0.4 0.3-0.7 0.3-0.3 0.7-0.3c0.3 0 0.5 0.1 0.7 0.3 0.2 0.2 0.3 0.4 0.3 0.7v6.1q0 0.4-0.3 0.7c-0.2 0.1-0.4 0.2-0.7 0.2zm0-16.2c-0.2 0-0.5-0.1-0.7-0.3-0.2-0.1-0.3-0.4-0.3-0.7v-6c0-0.3 0.1-0.6 0.3-0.7 0.2-0.2 0.5-0.3 0.7-0.3 0.3 0 0.5 0.1 0.7 0.3 0.2 0.1 0.3 0.4 0.3 0.7v6q0 0.4-0.3 0.7c-0.2 0.2-0.4 0.3-0.7 0.3zm0-16.2q-0.4 0-0.7-0.3-0.3-0.3-0.3-0.7v-6.1c0-0.2 0.1-0.5 0.3-0.7 0.2-0.2 0.5-0.3 0.7-0.3 0.3 0 0.5 0.1 0.7 0.3 0.2 0.2 0.3 0.5 0.3 0.7v6.1q0 0.4-0.3 0.7c-0.2 0.2-0.4 0.3-0.7 0.3zm0-16.3c-0.2 0-0.5-0.1-0.7-0.3-0.2-0.1-0.3-0.4-0.3-0.7v-6q0-0.4 0.3-0.7 0.3-0.3 0.7-0.3c0.3 0 0.5 0.1 0.7 0.3 0.2 0.1 0.3 0.4 0.3 0.7v6.1q0 0.4-0.3 0.6-0.3 0.3-0.7 0.3zm0-16.2c-0.2 0-0.5-0.1-0.7-0.3-0.2-0.2-0.3-0.4-0.3-0.7v-6.1q0-0.4 0.3-0.7 0.3-0.3 0.7-0.3c0.3 0 0.5 0.1 0.7 0.3 0.2 0.2 0.3 0.5 0.3 0.7v6.1q0 0.4-0.3 0.7c-0.2 0.2-0.4 0.3-0.7 0.3zm0-16.2c-0.2 0-0.5-0.1-0.7-0.3-0.2-0.2-0.3-0.5-0.3-0.7v-6.1c0-0.3 0.1-0.5 0.3-0.7 0.2-0.2 0.5-0.3 0.7-0.3 0.3 0 0.5 0.1 0.7 0.3 0.2 0.2 0.3 0.4 0.3 0.7v6.1q0 0.4-0.3 0.6c-0.2 0.2-0.4 0.3-0.7 0.3zm0-16.2q-0.4 0-0.7-0.3-0.3-0.3-0.3-0.7v-6.1c0-0.2 0.1-0.5 0.3-0.7 0.2-0.1 0.5-0.3 0.7-0.3 0.3 0 0.5 0.2 0.7 0.3 0.2 0.2 0.3 0.5 0.3 0.7v6.1q0 0.4-0.3 0.7c-0.2 0.2-0.4 0.3-0.7 0.3zm0-16.2c-0.2 0-0.5-0.1-0.7-0.3-0.2-0.2-0.3-0.5-0.3-0.7v-6.1q0-0.4 0.3-0.7 0.3-0.3 0.7-0.3c0.3 0 0.5 0.1 0.7 0.3 0.2 0.2 0.3 0.4 0.3 0.7v6.1q0 0.4-0.3 0.6c-0.2 0.2-0.4 0.3-0.7 0.3zm0-16.2c-0.2 0-0.5-0.1-0.7-0.3-0.2-0.2-0.3-0.4-0.3-0.7v-6.1q0-0.4 0.3-0.7 0.3-0.2 0.7-0.3c0.3 0 0.5 0.2 0.7 0.3 0.2 0.2 0.3 0.5 0.3 0.7v6.1q0 0.4-0.3 0.7c-0.2 0.2-0.4 0.3-0.7 0.3zm0-16.2c-0.2 0-0.5-0.1-0.7-0.3-0.2-0.2-0.3-0.5-0.3-0.7v-6.1c0-0.3 0.1-0.5 0.3-0.7 0.2-0.2 0.5-0.3 0.7-0.3 0.3 0 0.5 0.1 0.7 0.3 0.2 0.2 0.3 0.4 0.3 0.7v6.1q0 0.4-0.3 0.7c-0.2 0.1-0.4 0.2-0.7 0.2z"/><path class="d" d="m773.2 622l-13.6 7.8c1.2 2.8 1.9 5.8 2 8.9v241.6c0 2.6-0.6 4.2-1.7 4.8l13.3-7.7c1.1-0.6 1.8-2.2 1.8-4.7v-241.7c-0.1-3.1-0.7-6.1-1.8-9z"/><path class="n" d="m725.8 722.3c-0.2-7.1-2.7-13.9-7.2-19.4-4-4.2-7.3-2.3-7.3 4.2 0.2 7.1 2.8 13.9 7.3 19.4 4 4.2 7.2 2.3 7.2-4.2z"/><path class="e" d="m911.3 634.3l33.6 19.4-33.6 19.4z"/><path class="f" d="m936.8 658.3l7.5-4.3c1.1-0.4 2-1 2.6-1.9 0.6-0.9 1-2 1-3.1 0-1.1-0.4-2.2-1-3.1-0.6-0.9-1.5-1.5-2.6-1.9l-33-19.1v9.5l23 13.3q0.4 0.3 0.6 0.6 0.2 0.4 0.2 0.8 0 0.5-0.2 0.9-0.2 0.3-0.6 0.5l-5.6 3.3z"/><path class="f" d="m889.3 676.5c-9.6 5.5-17.3 18.3-17.3 28.6 0 5 1.8 8.5 4.7 10.2 3 1.6 8.2 4.7 8.2 4.7l51.3-33.3c1-0.4 1.9-1.1 2.5-2 0.6-0.8 1-1.9 1.1-2.9v-37.4c-0.1 1.1-0.5 2.1-1.1 3-0.6 0.8-1.5 1.5-2.5 2z"/><path class="e" d="m897.4 681.1c-9.6 5.5-17.3 18.4-17.3 28.7 0 10.3 7.7 14.2 17.3 8.7l46.9-27.1c1-0.4 1.8-1.1 2.5-2 0.6-0.9 1-1.9 1.1-3v-37.3c-0.1 1-0.5 2.1-1.1 2.9-0.6 0.9-1.5 1.6-2.5 2z"/><path class="n" d="m900.3 686.7c5.5-3.1 9.9-0.6 9.9 5.8-0.2 3.4-1.2 6.8-2.9 9.7-1.7 3-4.1 5.6-7 7.5-5.5 3.1-10 0.5-10-5.8 0.2-3.4 1.2-6.8 2.9-9.8 1.8-3 4.2-5.5 7.1-7.4z"/><path class="f" d="m768.1 613.8l-198-207.4c-1.9-1.8-3.3-4.1-4.1-6.6l-6.7 17 195.4 204.7c2.1 2.5 3.8 5.3 4.9 8.3l13.6-7.8c-1.2-3-2.9-5.8-5.1-8.2z"/></g></svg>