<svg width="343" height="98" viewBox="0 0 343 98" fill="none" xmlns="http://www.w3.org/2000/svg">
<rect width="343" height="98" rx="12" fill="url(#paint0_linear_3889_1848)"/>
<mask id="mask0_3889_1848" style="mask-type:alpha" maskUnits="userSpaceOnUse" x="0" y="0" width="343" height="98">
<path d="M0 12C0 5.37258 5.37258 0 12 0H331C337.627 0 343 5.37258 343 12V86C343 92.6274 337.627 98 331 98H12C5.37258 98 0 92.6274 0 86V12Z" fill="#1A50FF"/>
</mask>
<g mask="url(#mask0_3889_1848)">
<circle cx="23.5" cy="73.5" r="52.5" fill="url(#paint1_linear_3889_1848)"/>
<circle cx="317.5" cy="23.5" r="52.5" fill="url(#paint2_linear_3889_1848)"/>
<path d="M310.966 75.1944C311.097 75.1031 311.201 74.9779 311.267 74.8322C311.334 74.6864 311.359 74.5255 311.341 74.3664V38.488C311.326 38.0419 311.196 37.6073 310.966 37.2253L313.189 35.9419C313.42 36.323 313.549 36.7566 313.565 37.2016V73.083C313.583 73.2421 313.557 73.403 313.491 73.5488C313.425 73.6946 313.321 73.8197 313.189 73.911L310.966 75.1944Z" fill="#263238"/>
<path d="M310.966 37.2252C310.75 36.8348 310.439 36.506 310.061 36.2701L269.457 12.8262C268.043 12.0101 265.749 12.0101 264.335 12.8262L263.448 13.3378C263.085 13.5246 262.78 13.8054 262.563 14.1509C262.346 14.4963 262.226 14.8936 262.215 15.3013V54.1398C262.226 53.7318 262.346 53.3342 262.563 52.9884C262.78 52.6426 263.086 52.3612 263.448 52.1734L264.335 51.6618C265.749 50.8456 268.043 50.8456 269.457 51.6618L310.055 75.1056C310.177 75.2132 310.331 75.2797 310.493 75.2956C310.655 75.3116 310.819 75.2764 310.96 75.1948C311.101 75.1132 311.213 74.9895 311.281 74.8409C311.348 74.6923 311.367 74.5264 311.335 74.3664V38.4879C311.321 38.0424 311.194 37.6078 310.966 37.2252Z" fill="#37474F"/>
<path d="M262.327 15.9667C262.005 14.9879 262.404 13.9411 263.451 13.3378L264.338 12.8262C265.752 12.0101 268.046 12.0101 269.46 12.8262L310.055 36.2701C310.433 36.5063 310.744 36.8351 310.96 37.2253L313.183 35.9419C312.967 35.5517 312.656 35.2222 312.279 34.9838L270.566 10.9071C268.475 9.69764 265.32 9.69764 263.226 10.9071L262.339 11.4157C261.731 11.7535 261.208 12.2259 260.81 12.7969C260.412 13.3678 260.15 14.0222 260.044 14.7099C260.015 14.9057 260.001 15.1034 260 15.3013C260.015 16.4954 260.491 17.6374 261.328 18.4891L262.933 16.9573C262.66 16.6778 262.452 16.3402 262.327 15.9696" fill="#455A64"/>
<path d="M308.381 43.0982V38.1805L267.6 14.642C267.205 14.435 266.765 14.3269 266.319 14.3269C265.873 14.3269 265.434 14.435 265.039 14.642L264.595 14.8963C264.414 14.9899 264.262 15.1304 264.154 15.3031C264.045 15.4758 263.986 15.6744 263.98 15.8781V24.3857L308.381 43.0982Z" fill="#1a50ff"/>
<path opacity="0.2" d="M308.381 43.0982V38.1805L267.6 14.642C267.205 14.435 266.765 14.3269 266.319 14.3269C265.873 14.3269 265.434 14.435 265.039 14.642L264.595 14.8963C264.414 14.9899 264.262 15.1304 264.154 15.3031C264.045 15.4758 263.986 15.6744 263.98 15.8781V24.3857L308.381 43.0982Z" fill="black"/>
<path d="M268.153 13.6811C267.587 13.384 266.957 13.2288 266.318 13.2288C265.679 13.2288 265.049 13.384 264.483 13.6811L264.042 13.9354C263.739 14.103 263.477 14.3376 263.278 14.6215C263.078 14.9054 262.947 15.2311 262.892 15.5736C262.878 15.6716 262.871 15.7704 262.871 15.8693V17.2L263.98 18.3592V15.893C263.985 15.6892 264.045 15.4905 264.153 15.3178C264.261 15.145 264.414 15.0046 264.595 14.9112L265.039 14.6569C265.436 14.4556 265.874 14.3507 266.319 14.3507C266.764 14.3507 267.203 14.4556 267.6 14.6569L308.381 38.1954L309.493 37.5537L268.153 13.6811Z" fill="#1a50ff"/>
<path opacity="0.3" d="M268.153 13.6811C267.587 13.384 266.957 13.2288 266.318 13.2288C265.679 13.2288 265.049 13.384 264.483 13.6811L264.042 13.9354C263.739 14.103 263.477 14.3376 263.278 14.6215C263.078 14.9054 262.947 15.2311 262.892 15.5736C262.878 15.6716 262.871 15.7704 262.871 15.8693V17.2L263.98 18.3592V15.893C263.985 15.6892 264.045 15.4905 264.153 15.3178C264.261 15.145 264.414 15.0046 264.595 14.9112L265.039 14.6569C265.436 14.4556 265.874 14.3507 266.319 14.3507C266.764 14.3507 267.203 14.4556 267.6 14.6569L308.381 38.1954L309.493 37.5537L268.153 13.6811Z" fill="black"/>
<path d="M308.381 38.1805L309.493 37.5388V43.66L308.381 43.0006V38.1805Z" fill="#1a50ff"/>
<path opacity="0.4" d="M308.381 38.1805L309.493 37.5388V43.66L308.381 43.0006V38.1805Z" fill="black"/>
<path d="M309.806 70.6997V43.0745L269.137 19.5715C268.72 19.3309 268.246 19.2043 267.764 19.2043C267.282 19.2043 266.808 19.3309 266.39 19.5715L265.361 20.1629V46.5166L308.535 71.439C308.664 71.5114 308.811 71.5488 308.959 71.5476C309.107 71.5463 309.253 71.5064 309.381 71.4318C309.51 71.3572 309.616 71.2505 309.691 71.1221C309.765 70.9937 309.805 70.8481 309.806 70.6997Z" fill="#263238"/>
<path d="M305.853 69.6676L306.551 69.2654C306.666 69.1893 306.761 69.0874 306.83 68.9678C306.899 68.8482 306.939 68.7141 306.947 68.5764V40.1883C306.939 40.05 306.9 39.9154 306.831 39.7953C306.762 39.6751 306.666 39.5727 306.551 39.4963L269.738 18.2348C269.614 18.1729 269.478 18.1406 269.34 18.1406C269.202 18.1406 269.066 18.1729 268.942 18.2348L268.244 18.6369C268.129 18.7127 268.032 18.8145 267.963 18.9341C267.894 19.0538 267.853 19.1879 267.845 19.326V47.7141C267.853 47.8518 267.893 47.9858 267.962 48.1054C268.031 48.2251 268.126 48.327 268.241 48.4031L305.057 69.6676C305.181 69.7295 305.317 69.7617 305.455 69.7617C305.593 69.7617 305.729 69.7295 305.853 69.6676Z" fill="#1a50ff"/>
<path opacity="0.7" d="M305.853 69.6676L306.551 69.2654C306.666 69.1893 306.761 69.0874 306.83 68.9678C306.899 68.8482 306.939 68.7141 306.947 68.5764V40.1883C306.939 40.05 306.9 39.9154 306.831 39.7953C306.762 39.6751 306.666 39.5727 306.551 39.4963L269.738 18.2348C269.614 18.1729 269.478 18.1406 269.34 18.1406C269.202 18.1406 269.066 18.1729 268.942 18.2348L268.244 18.6369C268.129 18.7127 268.032 18.8145 267.963 18.9341C267.894 19.0538 267.853 19.1879 267.845 19.326V47.7141C267.853 47.8518 267.893 47.9858 267.962 48.1054C268.031 48.2251 268.126 48.327 268.241 48.4031L305.057 69.6676C305.181 69.7295 305.317 69.7617 305.455 69.7617C305.593 69.7617 305.729 69.7295 305.853 69.6676Z" fill="white"/>
<path d="M305.057 40.354L268.244 19.0954C268.026 18.9682 267.845 19.0717 267.845 19.326V47.7142C267.853 47.8519 267.893 47.9859 267.962 48.1055C268.031 48.2252 268.126 48.3271 268.241 48.4032L305.057 69.6677C305.276 69.7948 305.454 69.6913 305.454 69.44V41.0518C305.447 40.9126 305.408 40.7768 305.339 40.6555C305.27 40.5343 305.174 40.431 305.057 40.354Z" fill="#1a50ff"/>
<path d="M305.057 40.354L268.244 19.0954C268.026 18.9682 267.845 19.0717 267.845 19.326V47.7142C267.853 47.8519 267.893 47.9859 267.962 48.1055C268.031 48.2252 268.126 48.3271 268.241 48.4032L305.057 69.6677C305.276 69.7948 305.454 69.6913 305.454 69.44V41.0518C305.447 40.9126 305.408 40.7768 305.339 40.6555C305.27 40.5343 305.174 40.431 305.057 40.354Z" fill="#1a50ff"/>
<path opacity="0.5" d="M305.057 40.354L268.244 19.0954C268.026 18.9682 267.845 19.0717 267.845 19.326V47.7142C267.853 47.8519 267.893 47.9859 267.962 48.1055C268.031 48.2252 268.126 48.3271 268.241 48.4032L305.057 69.6677C305.276 69.7948 305.454 69.6913 305.454 69.44V41.0518C305.447 40.9126 305.408 40.7768 305.339 40.6555C305.27 40.5343 305.174 40.431 305.057 40.354Z" fill="white"/>
<path d="M268.244 19.0952C271.267 20.9493 274.309 22.7591 277.361 24.5629L286.528 29.9211L295.757 35.1907L300.391 37.7929L305.048 40.3538L300.5 37.6007L295.932 34.8861L286.765 29.5279L277.527 24.2583C274.448 22.5195 271.358 20.7867 268.244 19.0952Z" fill="white"/>
<path d="M305.324 40.6493L306.802 39.7888C306.876 39.9058 306.917 40.0407 306.92 40.1792V68.5673C306.913 68.7053 306.874 68.8397 306.806 68.9599C306.737 69.08 306.642 69.1825 306.527 69.2593L305.829 69.6614C305.719 69.7172 305.597 69.7492 305.474 69.7553C305.35 69.7614 305.226 69.7415 305.111 69.6969C305.294 69.756 305.43 69.6496 305.43 69.4278V41.0397C305.43 40.9024 305.393 40.7676 305.324 40.6493Z" fill="#1a50ff"/>
<path d="M305.454 44.2839L306.947 43.4233V50.8457L305.454 51.6973V44.2839Z" fill="#1a50ff"/>
<path opacity="0.2" d="M305.454 44.2839L306.947 43.4233V50.8457L305.454 51.6973V44.2839Z" fill="black"/>
<path opacity="0.2" d="M267.845 22.564L305.454 44.2838V51.6973L267.845 29.9774V22.564Z" fill="black"/>
<path d="M303.132 60.5096V65.3622C303.132 65.7259 302.878 65.8738 302.562 65.6934L297.466 62.7895C297.3 62.6814 297.162 62.5356 297.063 62.364C296.964 62.1923 296.906 61.9997 296.896 61.8018V56.9492C296.896 56.5855 297.153 56.4377 297.466 56.621C298.856 57.4224 301.172 58.7205 302.562 59.5219C302.728 59.63 302.866 59.7758 302.965 59.9474C303.064 60.1191 303.122 60.3117 303.132 60.5096Z" fill="#455A64"/>
<path d="M304.135 62.4315L304.265 62.2068L295.893 57.4133L295.763 57.6351L304.135 62.4315Z" fill="white"/>
<path d="M301.124 60.468H300.867V62.9402H301.124V60.468Z" fill="white"/>
<path d="M299.161 59.3857H298.904V61.8549H299.161V59.3857Z" fill="white"/>
<path d="M304.135 64.9096L304.265 64.6848L295.893 59.8914L295.763 60.1131L304.135 64.9096Z" fill="white"/>
<path d="M283.364 35.9567C283.151 35.5458 283.045 35.0885 283.054 34.626C283.054 34.1262 283.154 33.8009 283.349 33.6531C283.544 33.5052 283.843 33.5437 284.236 33.7625C284.391 33.8516 284.536 33.9567 284.668 34.0759C284.792 34.1851 284.903 34.3093 284.996 34.4456C285.016 34.4709 285.028 34.502 285.029 34.5343C285.029 34.5563 285.023 34.578 285.011 34.5964L284.896 34.7975C284.881 34.8182 284.866 34.827 284.849 34.8182C284.828 34.801 284.81 34.7811 284.795 34.759C284.661 34.5812 284.493 34.4315 284.302 34.3184C284.077 34.1883 283.902 34.1735 283.778 34.2741C283.703 34.3656 283.648 34.4718 283.616 34.5858C283.584 34.6998 283.575 34.8192 283.592 34.9365C283.583 35.2437 283.65 35.5484 283.787 35.8236C283.905 36.0584 284.089 36.2536 284.316 36.3854C284.468 36.4899 284.65 36.54 284.834 36.5274C284.852 36.5225 284.872 36.5225 284.89 36.5274C284.911 36.5474 284.927 36.573 284.934 36.6013L285.061 36.968C285.064 36.9876 285.064 37.0075 285.061 37.0271C285.061 37.0449 285.061 37.0597 285.02 37.0715C284.852 37.1336 284.588 37.0715 284.233 36.8586C283.866 36.6444 283.565 36.3321 283.364 35.9567Z" fill="#455A64"/>
<path d="M285.369 37.3997C285.344 37.3493 285.332 37.2934 285.334 37.2371V34.6556C285.334 34.5905 285.345 34.5491 285.369 34.5314C285.39 34.5107 285.428 34.5166 285.481 34.5491L286.306 35.0252C286.567 35.1633 286.784 35.3724 286.931 35.6282C287.078 35.8841 287.149 36.1764 287.137 36.4712C287.147 36.6338 287.114 36.7962 287.04 36.9414C287.01 36.9924 286.966 37.0342 286.914 37.0624C286.862 37.0905 286.803 37.1039 286.744 37.1011L287.087 38.3017C287.09 38.3233 287.09 38.3451 287.087 38.3667C287.087 38.4199 287.063 38.4347 287.019 38.4081L286.655 38.1982C286.629 38.1842 286.606 38.1651 286.587 38.142C286.568 38.1159 286.555 38.0855 286.549 38.0533L286.253 36.9207L285.863 36.696V37.5506C285.863 37.6127 285.863 37.6541 285.83 37.6718C285.798 37.6895 285.771 37.6718 285.718 37.6511L285.473 37.5121C285.428 37.4853 285.392 37.4463 285.369 37.3997ZM286.23 36.3825C286.354 36.4535 286.445 36.4742 286.508 36.4387C286.57 36.4032 286.602 36.3145 286.602 36.1637C286.606 36.0313 286.577 35.9001 286.516 35.7822C286.457 35.6763 286.369 35.5892 286.262 35.5309L285.872 35.3061V36.1785L286.23 36.3825Z" fill="#455A64"/>
<path d="M287.439 38.5974C287.416 38.5463 287.405 38.4908 287.406 38.4348V35.8503C287.401 35.8063 287.413 35.762 287.439 35.7261C287.463 35.7084 287.501 35.7261 287.551 35.7438L288.909 36.5275C288.954 36.5507 288.992 36.5867 289.018 36.631C289.038 36.6808 289.047 36.7342 289.045 36.7877V36.9503C289.051 36.9945 289.041 37.0394 289.018 37.0775C288.997 37.0952 288.962 37.0775 288.909 37.0597L287.945 36.5009V37.1839L288.619 37.5743C288.664 37.5976 288.701 37.6336 288.725 37.6778C288.748 37.7269 288.758 37.7807 288.755 37.8345V37.9883C288.755 38.0533 288.755 38.0977 288.725 38.1154C288.696 38.1332 288.669 38.1154 288.619 38.0947L287.945 37.7074V38.3993L288.906 38.9552C288.952 38.9778 288.99 39.0153 289.012 39.0617C289.035 39.1118 289.045 39.1666 289.042 39.2214V39.3781C289.042 39.4461 289.042 39.4875 289.012 39.5023C288.983 39.5171 288.959 39.5023 288.906 39.4816L287.551 38.7009C287.505 38.6769 287.467 38.6412 287.439 38.5974Z" fill="#455A64"/>
<path d="M289.317 39.6797C289.292 39.6293 289.279 39.5734 289.281 39.5171V36.9326C289.278 36.9105 289.28 36.8882 289.286 36.8668C289.292 36.8454 289.303 36.8256 289.317 36.8084C289.337 36.7906 289.376 36.8084 289.429 36.8261L290.115 37.2224C290.471 37.4214 290.765 37.7152 290.964 38.0711C291.172 38.4693 291.274 38.9143 291.26 39.3633C291.26 39.868 291.161 40.1844 290.964 40.3125C290.769 40.4397 290.485 40.3983 290.118 40.1854L289.432 39.7891C289.383 39.7661 289.342 39.7277 289.317 39.6797ZM290.142 39.6797C290.339 39.7921 290.484 39.8039 290.576 39.7152C290.7 39.5199 290.75 39.2874 290.718 39.0587C290.731 38.7786 290.683 38.4991 290.576 38.2396C290.482 38.0447 290.33 37.8829 290.142 37.7753L289.819 37.592V39.4964L290.142 39.6797Z" fill="#455A64"/>
<path d="M291.558 40.9719C291.533 40.9225 291.521 40.8676 291.523 40.8122V38.2277C291.52 38.2057 291.522 38.1833 291.528 38.162C291.534 38.1406 291.544 38.1207 291.558 38.1035C291.579 38.0858 291.617 38.1035 291.671 38.1213L291.916 38.2632C291.964 38.2879 292.004 38.3272 292.028 38.3756C292.053 38.4262 292.064 38.4821 292.061 38.5382V41.1227C292.061 41.1878 292.061 41.2292 292.028 41.2469C291.996 41.2647 291.969 41.2469 291.916 41.2262L291.671 41.0843C291.622 41.0596 291.583 41.0203 291.558 40.9719Z" fill="#455A64"/>
<path d="M292.972 41.7909C292.948 41.7402 292.936 41.6843 292.939 41.6283V39.3838L292.401 39.0881C292.357 39.0632 292.321 39.0276 292.295 38.9846C292.272 38.9345 292.262 38.8798 292.265 38.8249V38.6623C292.265 38.5973 292.265 38.5559 292.295 38.5381C292.324 38.5204 292.351 38.5381 292.401 38.5559L294.016 39.4873C294.062 39.5108 294.1 39.5479 294.125 39.5938C294.148 39.6447 294.159 39.7004 294.158 39.7564V39.9161C294.158 39.9812 294.158 40.0226 294.125 40.0374C294.092 40.0521 294.069 40.0374 294.016 40.0196L293.495 39.6973V41.9417C293.495 42.0068 293.495 42.0452 293.46 42.063C293.424 42.0807 293.401 42.063 293.344 42.0423L293.102 41.9033C293.048 41.8795 293.003 41.8404 292.972 41.7909Z" fill="#455A64"/>
<path d="M295.784 43.1249C295.569 42.716 295.461 42.2591 295.47 41.7971C295.47 41.2944 295.571 40.9691 295.766 40.8242C295.961 40.6793 296.263 40.7119 296.653 40.9307C296.808 41.0194 296.953 41.1245 297.085 41.2441C297.209 41.354 297.319 41.4781 297.413 41.6138C297.434 41.6385 297.446 41.67 297.446 41.7025C297.447 41.7256 297.441 41.7485 297.428 41.7676L297.313 41.9657C297.313 41.9893 297.283 41.9952 297.268 41.9864C297.246 41.9717 297.227 41.9526 297.212 41.9302C297.08 41.7501 296.912 41.5992 296.718 41.4866C296.494 41.3595 296.319 41.3447 296.195 41.4452C296.12 41.5367 296.064 41.6428 296.032 41.7568C296 41.8709 295.992 41.9903 296.009 42.1076C295.999 42.4149 296.066 42.7198 296.204 42.9947C296.323 43.2305 296.508 43.4267 296.736 43.5596C296.886 43.6643 297.068 43.7144 297.251 43.7015C297.269 43.6949 297.289 43.6949 297.307 43.7015C297.329 43.7209 297.344 43.7468 297.351 43.7754L297.481 44.1391C297.484 44.1597 297.484 44.1807 297.481 44.2012C297.481 44.219 297.481 44.2308 297.443 44.2426C297.271 44.3077 297.008 44.2426 296.653 44.0327C296.283 43.8185 295.982 43.5037 295.784 43.1249Z" fill="#455A64"/>
<path d="M297.608 44.4375C297.606 44.4169 297.606 44.396 297.608 44.3754L298.454 42.1753C298.461 42.1454 298.479 42.1191 298.504 42.1014C298.519 42.0977 298.534 42.0974 298.548 42.1005C298.562 42.1036 298.576 42.11 298.587 42.1191L298.824 42.2581C298.856 42.2745 298.884 42.2989 298.904 42.3291C298.925 42.3711 298.941 42.4158 298.951 42.4622L299.8 45.6381C299.802 45.6627 299.802 45.6874 299.8 45.712C299.8 45.7623 299.779 45.7771 299.741 45.7534L299.344 45.5257C299.318 45.5116 299.296 45.4913 299.279 45.4666C299.262 45.4373 299.249 45.4053 299.241 45.3719L299.09 44.7805L298.297 44.3222L298.15 44.751C298.15 44.7805 298.126 44.7983 298.111 44.8012C298.096 44.8042 298.076 44.8012 298.043 44.7835L297.65 44.5558C297.632 44.5422 297.619 44.5237 297.612 44.5028C297.604 44.4818 297.603 44.4591 297.608 44.4375ZM298.984 44.2009L298.711 43.1009L298.439 43.8845L298.984 44.2009Z" fill="#455A64"/>
<path d="M300.122 45.9192C300.098 45.8685 300.087 45.8126 300.089 45.7566V43.1721C300.086 43.1503 300.088 43.128 300.093 43.1067C300.099 43.0854 300.109 43.0654 300.122 43.0479C300.146 43.0301 300.184 43.0479 300.234 43.0656L301.062 43.5447C301.323 43.6828 301.54 43.8918 301.687 44.1477C301.834 44.4036 301.905 44.6958 301.893 44.9907C301.904 45.1528 301.869 45.3146 301.793 45.4579C301.763 45.5095 301.72 45.5519 301.668 45.5806C301.615 45.6093 301.556 45.6231 301.497 45.6206L301.84 46.8211C301.843 46.8427 301.843 46.8646 301.84 46.8862C301.84 46.9394 301.819 46.9512 301.772 46.9246L301.411 46.7147C301.384 46.7016 301.36 46.6836 301.34 46.6614C301.322 46.6333 301.309 46.6023 301.302 46.5698L301.006 45.4402L300.619 45.2154V46.0552C300.625 46.0993 300.613 46.144 300.586 46.1794C300.563 46.1972 300.527 46.1794 300.471 46.1587L300.225 46.0168C300.184 45.9932 300.148 45.9597 300.122 45.9192ZM300.982 44.902C301.107 44.973 301.201 44.9907 301.263 44.9582C301.325 44.9256 301.355 44.831 301.355 44.6802C301.36 44.549 301.332 44.4188 301.272 44.3017C301.211 44.1954 301.122 44.1076 301.015 44.0474L300.628 43.8256V44.695L300.982 44.902Z" fill="#455A64"/>
<path d="M302.195 47.114C302.17 47.0645 302.158 47.0097 302.159 46.9543V44.3698C302.159 44.3048 302.171 44.2634 302.195 44.2456C302.219 44.2279 302.254 44.2456 302.307 44.2634L302.993 44.6596C303.35 44.8567 303.644 45.1497 303.842 45.5054C304.049 45.9037 304.151 46.3487 304.138 46.7976C304.138 47.3033 304.04 47.6197 303.842 47.7498C303.644 47.8799 303.363 47.8355 302.996 47.6226L302.307 47.2382C302.258 47.2095 302.219 47.1661 302.195 47.114ZM303.02 47.114C303.217 47.2264 303.362 47.2382 303.455 47.1495C303.549 47.0637 303.597 46.8538 303.597 46.496C303.61 46.2159 303.561 45.9363 303.455 45.6769C303.36 45.4814 303.209 45.3194 303.02 45.2126L302.701 45.0263V46.9307L303.02 47.114Z" fill="#455A64"/>
<g opacity="0.15">
<path d="M283.364 35.9567C283.151 35.5458 283.045 35.0885 283.054 34.626C283.054 34.1262 283.154 33.8009 283.349 33.6531C283.544 33.5052 283.843 33.5437 284.236 33.7625C284.391 33.8516 284.536 33.9567 284.668 34.0759C284.792 34.1851 284.903 34.3093 284.996 34.4456C285.016 34.4709 285.028 34.502 285.029 34.5343C285.029 34.5563 285.023 34.578 285.011 34.5964L284.896 34.7975C284.881 34.8182 284.866 34.827 284.849 34.8182C284.828 34.801 284.81 34.7811 284.795 34.759C284.661 34.5812 284.493 34.4315 284.302 34.3184C284.077 34.1883 283.902 34.1735 283.778 34.2741C283.703 34.3656 283.648 34.4718 283.616 34.5858C283.584 34.6998 283.575 34.8192 283.592 34.9365C283.583 35.2437 283.65 35.5484 283.787 35.8236C283.905 36.0584 284.089 36.2536 284.316 36.3854C284.468 36.4899 284.65 36.54 284.834 36.5274C284.852 36.5225 284.872 36.5225 284.89 36.5274C284.911 36.5474 284.927 36.573 284.934 36.6013L285.061 36.968C285.064 36.9876 285.064 37.0075 285.061 37.0271C285.061 37.0449 285.061 37.0597 285.02 37.0715C284.852 37.1336 284.588 37.0715 284.233 36.8586C283.866 36.6444 283.565 36.3321 283.364 35.9567Z" fill="#455A64"/>
<path d="M285.369 37.3997C285.344 37.3493 285.332 37.2934 285.334 37.2371V34.6556C285.334 34.5905 285.345 34.5491 285.369 34.5314C285.39 34.5107 285.428 34.5166 285.481 34.5491L286.306 35.0252C286.567 35.1633 286.784 35.3724 286.931 35.6282C287.078 35.8841 287.149 36.1764 287.137 36.4712C287.147 36.6338 287.114 36.7962 287.04 36.9414C287.01 36.9924 286.966 37.0342 286.914 37.0624C286.862 37.0905 286.803 37.1039 286.744 37.1011L287.087 38.3017C287.09 38.3233 287.09 38.3451 287.087 38.3667C287.087 38.4199 287.063 38.4347 287.019 38.4081L286.655 38.1982C286.629 38.1842 286.606 38.1651 286.587 38.142C286.568 38.1159 286.555 38.0855 286.549 38.0533L286.253 36.9207L285.863 36.696V37.5506C285.863 37.6127 285.863 37.6541 285.83 37.6718C285.798 37.6895 285.771 37.6718 285.718 37.6511L285.473 37.5121C285.428 37.4853 285.392 37.4463 285.369 37.3997ZM286.23 36.3825C286.354 36.4535 286.445 36.4742 286.508 36.4387C286.57 36.4032 286.602 36.3145 286.602 36.1637C286.606 36.0313 286.577 35.9001 286.516 35.7822C286.457 35.6763 286.369 35.5892 286.262 35.5309L285.872 35.3061V36.1785L286.23 36.3825Z" fill="#455A64"/>
<path d="M287.439 38.5974C287.416 38.5463 287.405 38.4908 287.406 38.4348V35.8503C287.401 35.8063 287.413 35.762 287.439 35.7261C287.463 35.7084 287.501 35.7261 287.551 35.7438L288.909 36.5275C288.954 36.5507 288.992 36.5867 289.018 36.631C289.038 36.6808 289.047 36.7342 289.045 36.7877V36.9503C289.051 36.9945 289.041 37.0394 289.018 37.0775C288.997 37.0952 288.962 37.0775 288.909 37.0597L287.945 36.5009V37.1839L288.619 37.5743C288.664 37.5976 288.701 37.6336 288.725 37.6778C288.748 37.7269 288.758 37.7807 288.755 37.8345V37.9883C288.755 38.0533 288.755 38.0977 288.725 38.1154C288.696 38.1332 288.669 38.1154 288.619 38.0947L287.945 37.7074V38.3993L288.906 38.9552C288.952 38.9778 288.99 39.0153 289.012 39.0617C289.035 39.1118 289.045 39.1666 289.042 39.2214V39.3781C289.042 39.4461 289.042 39.4875 289.012 39.5023C288.983 39.5171 288.959 39.5023 288.906 39.4816L287.551 38.7009C287.505 38.6769 287.467 38.6412 287.439 38.5974Z" fill="#455A64"/>
<path d="M289.317 39.6797C289.292 39.6293 289.279 39.5734 289.281 39.5171V36.9326C289.278 36.9105 289.28 36.8882 289.286 36.8668C289.292 36.8454 289.303 36.8256 289.317 36.8084C289.337 36.7906 289.376 36.8084 289.429 36.8261L290.115 37.2224C290.471 37.4214 290.765 37.7152 290.964 38.0711C291.172 38.4693 291.274 38.9143 291.26 39.3633C291.26 39.868 291.161 40.1844 290.964 40.3125C290.769 40.4397 290.485 40.3983 290.118 40.1854L289.432 39.7891C289.383 39.7661 289.342 39.7277 289.317 39.6797ZM290.142 39.6797C290.339 39.7921 290.484 39.8039 290.576 39.7152C290.7 39.5199 290.75 39.2874 290.718 39.0587C290.731 38.7786 290.683 38.4991 290.576 38.2396C290.482 38.0447 290.33 37.8829 290.142 37.7753L289.819 37.592V39.4964L290.142 39.6797Z" fill="#455A64"/>
<path d="M291.558 40.9719C291.533 40.9225 291.521 40.8676 291.523 40.8122V38.2277C291.52 38.2057 291.522 38.1833 291.528 38.162C291.534 38.1406 291.544 38.1207 291.558 38.1035C291.579 38.0858 291.617 38.1035 291.671 38.1213L291.916 38.2632C291.964 38.2879 292.004 38.3272 292.028 38.3756C292.053 38.4262 292.064 38.4821 292.061 38.5382V41.1227C292.061 41.1878 292.061 41.2292 292.028 41.2469C291.996 41.2647 291.969 41.2469 291.916 41.2262L291.671 41.0843C291.622 41.0596 291.583 41.0203 291.558 40.9719Z" fill="#455A64"/>
<path d="M292.972 41.7909C292.948 41.7402 292.936 41.6843 292.939 41.6283V39.3838L292.401 39.0881C292.357 39.0632 292.321 39.0276 292.295 38.9846C292.272 38.9345 292.262 38.8798 292.265 38.8249V38.6623C292.265 38.5973 292.265 38.5559 292.295 38.5381C292.324 38.5204 292.351 38.5381 292.401 38.5559L294.016 39.4873C294.062 39.5108 294.1 39.5479 294.125 39.5938C294.148 39.6447 294.159 39.7004 294.158 39.7564V39.9161C294.158 39.9812 294.158 40.0226 294.125 40.0374C294.092 40.0521 294.069 40.0374 294.016 40.0196L293.495 39.6973V41.9417C293.495 42.0068 293.495 42.0452 293.46 42.063C293.424 42.0807 293.401 42.063 293.344 42.0423L293.102 41.9033C293.048 41.8795 293.003 41.8404 292.972 41.7909Z" fill="#455A64"/>
<path d="M295.784 43.1249C295.569 42.716 295.461 42.2591 295.47 41.7971C295.47 41.2944 295.571 40.9691 295.766 40.8242C295.961 40.6793 296.263 40.7119 296.653 40.9307C296.808 41.0194 296.953 41.1245 297.085 41.2441C297.209 41.354 297.319 41.4781 297.413 41.6138C297.434 41.6385 297.446 41.67 297.446 41.7025C297.447 41.7256 297.441 41.7485 297.428 41.7676L297.313 41.9657C297.313 41.9893 297.283 41.9952 297.268 41.9864C297.246 41.9717 297.227 41.9526 297.212 41.9302C297.08 41.7501 296.912 41.5992 296.718 41.4866C296.494 41.3595 296.319 41.3447 296.195 41.4452C296.12 41.5367 296.064 41.6428 296.032 41.7568C296 41.8709 295.992 41.9903 296.009 42.1076C295.999 42.4149 296.066 42.7198 296.204 42.9947C296.323 43.2305 296.508 43.4267 296.736 43.5596C296.886 43.6643 297.068 43.7144 297.251 43.7015C297.269 43.6949 297.289 43.6949 297.307 43.7015C297.329 43.7209 297.344 43.7468 297.351 43.7754L297.481 44.1391C297.484 44.1597 297.484 44.1807 297.481 44.2012C297.481 44.219 297.481 44.2308 297.443 44.2426C297.271 44.3077 297.008 44.2426 296.653 44.0327C296.283 43.8185 295.982 43.5037 295.784 43.1249Z" fill="#455A64"/>
<path d="M297.608 44.4375C297.606 44.4169 297.606 44.396 297.608 44.3754L298.454 42.1753C298.461 42.1454 298.479 42.1191 298.504 42.1014C298.519 42.0977 298.534 42.0974 298.548 42.1005C298.562 42.1036 298.576 42.11 298.587 42.1191L298.824 42.2581C298.856 42.2745 298.884 42.2989 298.904 42.3291C298.925 42.3711 298.941 42.4158 298.951 42.4622L299.8 45.6381C299.802 45.6627 299.802 45.6874 299.8 45.712C299.8 45.7623 299.779 45.7771 299.741 45.7534L299.344 45.5257C299.318 45.5116 299.296 45.4913 299.279 45.4666C299.262 45.4373 299.249 45.4053 299.241 45.3719L299.09 44.7805L298.297 44.3222L298.15 44.751C298.15 44.7805 298.126 44.7983 298.111 44.8012C298.096 44.8042 298.076 44.8012 298.043 44.7835L297.65 44.5558C297.632 44.5422 297.619 44.5237 297.612 44.5028C297.604 44.4818 297.603 44.4591 297.608 44.4375ZM298.984 44.2009L298.711 43.1009L298.439 43.8845L298.984 44.2009Z" fill="#455A64"/>
<path d="M300.122 45.9192C300.098 45.8685 300.087 45.8126 300.089 45.7566V43.1721C300.086 43.1503 300.088 43.128 300.093 43.1067C300.099 43.0854 300.109 43.0654 300.122 43.0479C300.146 43.0301 300.184 43.0479 300.234 43.0656L301.062 43.5447C301.323 43.6828 301.54 43.8918 301.687 44.1477C301.834 44.4036 301.905 44.6958 301.893 44.9907C301.904 45.1528 301.869 45.3146 301.793 45.4579C301.763 45.5095 301.72 45.5519 301.668 45.5806C301.615 45.6093 301.556 45.6231 301.497 45.6206L301.84 46.8211C301.843 46.8427 301.843 46.8646 301.84 46.8862C301.84 46.9394 301.819 46.9512 301.772 46.9246L301.411 46.7147C301.384 46.7016 301.36 46.6836 301.34 46.6614C301.322 46.6333 301.309 46.6023 301.302 46.5698L301.006 45.4402L300.619 45.2154V46.0552C300.625 46.0993 300.613 46.144 300.586 46.1794C300.563 46.1972 300.527 46.1794 300.471 46.1587L300.225 46.0168C300.184 45.9932 300.148 45.9597 300.122 45.9192ZM300.982 44.902C301.107 44.973 301.201 44.9907 301.263 44.9582C301.325 44.9256 301.355 44.831 301.355 44.6802C301.36 44.549 301.332 44.4188 301.272 44.3017C301.211 44.1954 301.122 44.1076 301.015 44.0474L300.628 43.8256V44.695L300.982 44.902Z" fill="#455A64"/>
<path d="M302.195 47.114C302.17 47.0645 302.158 47.0097 302.159 46.9543V44.3698C302.159 44.3048 302.171 44.2634 302.195 44.2456C302.219 44.2279 302.254 44.2456 302.307 44.2634L302.993 44.6596C303.35 44.8567 303.644 45.1497 303.842 45.5054C304.049 45.9037 304.151 46.3487 304.138 46.7976C304.138 47.3033 304.04 47.6197 303.842 47.7498C303.644 47.8799 303.363 47.8355 302.996 47.6226L302.307 47.2382C302.258 47.2095 302.219 47.1661 302.195 47.114ZM303.02 47.114C303.217 47.2264 303.362 47.2382 303.455 47.1495C303.549 47.0637 303.597 46.8538 303.597 46.496C303.61 46.2159 303.561 45.9363 303.455 45.6769C303.36 45.4814 303.209 45.3194 303.02 45.2126L302.701 45.0263V46.9307L303.02 47.114Z" fill="#455A64"/>
</g>
<path d="M273.322 41.9714L274.774 42.8112C274.874 42.8755 274.957 42.9626 275.017 43.0655C275.076 43.1683 275.111 43.2839 275.117 43.4027V43.8462C275.117 44.065 274.963 44.1419 274.774 44.0444L273.322 43.2045C273.222 43.1399 273.139 43.0527 273.079 42.9499C273.02 42.8472 272.985 42.7317 272.979 42.6131V42.1695C272.979 41.9507 273.133 41.862 273.322 41.9714Z" fill="#1a50ff"/>
<path d="M270.116 40.1203L271.568 40.9602C271.668 41.0247 271.751 41.112 271.811 41.2148C271.87 41.3175 271.905 41.4329 271.911 41.5516V41.9951C271.911 42.214 271.758 42.2909 271.568 42.1933L270.116 41.3535C270.017 41.2889 269.934 41.2016 269.874 41.0989C269.814 40.9961 269.78 40.8807 269.773 40.762V40.3185C269.773 40.0997 269.927 40.0109 270.116 40.1203Z" fill="#1a50ff"/>
<path d="M288.468 53.7999L270.371 43.3524C270.057 43.1691 269.803 43.317 269.803 43.6807V44.2159C269.813 44.4135 269.87 44.6059 269.969 44.7774C270.068 44.949 270.205 45.095 270.371 45.2036L288.468 55.6481C288.784 55.8314 289.039 55.6835 289.039 55.3198V54.7846C289.029 54.5869 288.971 54.3946 288.872 54.2234C288.773 54.0522 288.634 53.907 288.468 53.7999Z" fill="#1a50ff"/>
<path d="M273.322 41.9714L274.774 42.8112C274.874 42.8755 274.957 42.9626 275.017 43.0655C275.076 43.1683 275.111 43.2839 275.117 43.4027V43.8462C275.117 44.065 274.963 44.1419 274.774 44.0444L273.322 43.2045C273.222 43.1399 273.139 43.0527 273.079 42.9499C273.02 42.8472 272.985 42.7317 272.979 42.6131V42.1695C272.979 41.9507 273.133 41.862 273.322 41.9714Z" fill="#455A64"/>
<path d="M270.116 40.1203L271.568 40.9602C271.668 41.0247 271.751 41.112 271.811 41.2148C271.87 41.3175 271.905 41.4329 271.911 41.5516V41.9951C271.911 42.214 271.758 42.2909 271.568 42.1933L270.116 41.3535C270.017 41.2889 269.934 41.2016 269.874 41.0989C269.814 40.9961 269.78 40.8807 269.773 40.762V40.3185C269.773 40.0997 269.927 40.0109 270.116 40.1203Z" fill="#455A64"/>
<path d="M288.468 53.7999L270.371 43.3524C270.057 43.1691 269.803 43.317 269.803 43.6807V44.2159C269.813 44.4135 269.87 44.6059 269.969 44.7774C270.068 44.949 270.205 45.095 270.371 45.2036L288.468 55.6481C288.784 55.8314 289.039 55.6835 289.039 55.3198V54.7846C289.029 54.5869 288.971 54.3946 288.872 54.2234C288.773 54.0522 288.634 53.907 288.468 53.7999Z" fill="#455A64"/>
<path d="M270.134 35.0815L270.202 35.12C270.315 35.201 270.407 35.3075 270.471 35.4308C270.536 35.5541 270.57 35.6907 270.572 35.8297V37.255C270.572 37.5271 270.406 37.6572 270.196 37.5507L270.14 37.5211C270.026 37.4436 269.932 37.3397 269.867 37.2182C269.801 37.0967 269.766 36.9612 269.764 36.8233V35.3684C269.773 35.0904 269.939 34.9632 270.134 35.0815Z" fill="#FAFAFA"/>
<path d="M272.056 36.1931L272.121 36.2316C272.234 36.312 272.327 36.4179 272.392 36.5406C272.456 36.6634 272.491 36.7996 272.494 36.9383V38.3666C272.494 38.6416 272.325 38.7717 272.118 38.6623L272.059 38.6298C271.945 38.5524 271.851 38.4486 271.786 38.327C271.72 38.2055 271.685 38.0699 271.684 37.9319V36.4741C271.684 36.1991 271.849 36.0749 272.056 36.1931Z" fill="#FAFAFA"/>
<path d="M273.978 37.3022L274.046 37.3407C274.159 37.4217 274.251 37.5282 274.316 37.6515C274.38 37.7748 274.414 37.9114 274.416 38.0504V39.4757C274.416 39.7478 274.247 39.8779 274.04 39.7714L273.984 39.7418C273.87 39.6647 273.776 39.5608 273.71 39.4393C273.645 39.3177 273.61 39.182 273.609 39.044V37.5891C273.597 37.3111 273.762 37.184 273.978 37.3022Z" fill="#FAFAFA"/>
<path d="M275.877 38.4141L275.945 38.4526C276.057 38.5334 276.149 38.6393 276.213 38.7621C276.278 38.8848 276.312 39.0208 276.314 39.1593V40.5846C276.314 40.8597 276.146 40.9898 275.939 40.8804L275.883 40.8478C275.769 40.7703 275.675 40.6664 275.609 40.5449C275.544 40.4234 275.509 40.2879 275.507 40.15V38.6921C275.507 38.4201 275.673 38.2959 275.877 38.4141Z" fill="#FAFAFA"/>
<path d="M279.082 40.2414L279.15 40.2799C279.263 40.361 279.355 40.4674 279.42 40.5907C279.484 40.714 279.518 40.8506 279.52 40.9896V42.4149C279.52 42.687 279.351 42.8171 279.144 42.7106L279.088 42.681C278.974 42.6035 278.88 42.4996 278.815 42.3781C278.75 42.2566 278.714 42.1211 278.713 41.9832V40.5283C278.71 40.2503 278.878 40.1232 279.082 40.2414Z" fill="#FAFAFA"/>
<path d="M280.992 41.3533L281.06 41.3918C281.173 41.4725 281.265 41.5785 281.329 41.7012C281.393 41.824 281.428 41.96 281.43 42.0985V43.5238C281.43 43.7959 281.262 43.926 281.055 43.8195L280.995 43.79C280.881 43.7124 280.788 43.6085 280.722 43.487C280.657 43.3655 280.622 43.23 280.62 43.0921V41.6194C280.623 41.3592 280.78 41.235 280.992 41.3533Z" fill="#FAFAFA"/>
<path d="M282.906 42.4622L282.971 42.5007C283.084 42.5814 283.177 42.6878 283.242 42.8111C283.307 42.9343 283.341 43.0712 283.343 43.2104V44.6357C283.343 44.9078 283.175 45.0379 282.968 44.9314L282.909 44.8989C282.795 44.8218 282.701 44.7184 282.636 44.5974C282.57 44.4764 282.535 44.3415 282.533 44.204V42.7432C282.533 42.4711 282.699 42.344 282.906 42.4622Z" fill="#FAFAFA"/>
<path d="M284.816 43.5742L284.884 43.6126C284.997 43.6934 285.089 43.7994 285.153 43.9221C285.217 44.0449 285.252 44.1809 285.254 44.3194V45.7595C285.254 46.0315 285.085 46.1617 284.878 46.0552L284.822 46.0256C284.708 45.9481 284.614 45.8442 284.549 45.7227C284.483 45.6012 284.448 45.4657 284.446 45.3278V43.8729C284.446 43.5801 284.624 43.4559 284.816 43.5742Z" fill="#FAFAFA"/>
<path d="M288.021 45.4015L288.09 45.44C288.202 45.5211 288.295 45.6275 288.359 45.7508C288.423 45.8741 288.457 46.0107 288.459 46.1497V47.575C288.459 47.8471 288.291 47.9772 288.084 47.8707L288.027 47.8382C287.914 47.7611 287.82 47.6577 287.755 47.5367C287.689 47.4157 287.654 47.2808 287.652 47.1433V45.6884C287.652 45.4075 287.817 45.2833 288.021 45.4015Z" fill="#FAFAFA"/>
<path d="M289.947 46.5136L290.015 46.5521C290.127 46.6329 290.219 46.7389 290.283 46.8616C290.348 46.9843 290.382 47.1204 290.384 47.2588V48.6842C290.384 48.9562 290.219 49.0863 290.009 48.9799L289.953 48.9503C289.838 48.8728 289.745 48.7688 289.679 48.6473C289.614 48.5259 289.579 48.3904 289.577 48.2524V46.7975C289.562 46.5196 289.728 46.3954 289.947 46.5136Z" fill="#FAFAFA"/>
<path d="M291.845 47.6225L291.91 47.661C292.024 47.7417 292.116 47.8481 292.181 47.9714C292.246 48.0946 292.281 48.2314 292.283 48.3707V49.7931C292.283 50.0681 292.114 50.1982 291.907 50.0888L291.848 50.0562C291.734 49.9789 291.64 49.875 291.574 49.7535C291.509 49.6319 291.474 49.4964 291.472 49.3584V47.9064C291.472 47.6285 291.638 47.5043 291.845 47.6225Z" fill="#FAFAFA"/>
<path d="M293.755 48.7315L293.823 48.7729C293.936 48.8537 294.028 48.9597 294.092 49.0824C294.156 49.2052 294.191 49.3412 294.193 49.4797V50.905C294.193 51.1771 294.024 51.3072 293.817 51.2007L293.761 51.1711C293.647 51.094 293.553 50.9901 293.487 50.8686C293.422 50.747 293.387 50.6113 293.386 50.4733V49.0125C293.383 48.7404 293.551 48.6132 293.755 48.7315Z" fill="#FAFAFA"/>
<path d="M296.961 50.562L297.029 50.6004C297.142 50.6815 297.234 50.788 297.298 50.9112C297.362 51.0345 297.397 51.1712 297.398 51.3101V52.7325C297.398 53.0075 297.23 53.1376 297.023 53.0282L296.967 52.9957C296.852 52.9189 296.758 52.8151 296.692 52.6935C296.627 52.5718 296.592 52.436 296.591 52.2978V50.8459C296.591 50.5679 296.748 50.4437 296.961 50.562Z" fill="#FAFAFA"/>
<path d="M298.871 51.6737L298.939 51.7151C299.052 51.7959 299.144 51.9019 299.208 52.0246C299.272 52.1473 299.307 52.2834 299.309 52.4218V53.8472C299.309 54.1192 299.14 54.2493 298.933 54.1429L298.877 54.1133C298.763 54.0358 298.669 53.9318 298.604 53.8103C298.538 53.6889 298.503 53.5534 298.501 53.4154V51.9605C298.501 51.6737 298.667 51.5525 298.871 51.6737Z" fill="#FAFAFA"/>
<path d="M300.781 52.7825L300.849 52.8209C300.962 52.9017 301.054 53.0077 301.118 53.1304C301.182 53.2532 301.217 53.3892 301.219 53.5277V54.953C301.219 55.228 301.053 55.3581 300.843 55.2487L300.787 55.2162C300.673 55.1388 300.579 55.035 300.514 54.9134C300.448 54.7919 300.413 54.6563 300.412 54.5183V53.0634C300.412 52.7884 300.592 52.6642 300.781 52.7825Z" fill="#FAFAFA"/>
<path d="M302.695 53.8913L302.76 53.9298C302.873 54.0105 302.966 54.1169 303.031 54.2402C303.095 54.3635 303.13 54.5003 303.132 54.6395V56.0648C303.132 56.3369 302.964 56.467 302.757 56.3605L302.698 56.331C302.583 56.2534 302.49 56.1495 302.424 56.028C302.359 55.9065 302.324 55.771 302.322 55.6331V54.1782C302.322 53.9002 302.488 53.7731 302.695 53.8913Z" fill="#FAFAFA"/>
<path opacity="0.35" d="M307.816 70.9453C307.816 71.7585 307.24 72.0897 306.536 71.6846L271.861 51.6739C271.489 51.4304 271.179 51.1028 270.956 50.7176C270.734 50.3323 270.605 49.9002 270.58 49.4561V30.1196L307.816 51.6177V70.9453Z" fill="white"/>
<path d="M261.328 57.3216L290.325 87.688C290.621 88.0045 290.916 88.0991 291.088 87.9838C291.259 87.8684 291.345 87.6496 291.345 87.2741V51.4163C291.326 50.9645 291.226 50.5198 291.05 50.1033C290.883 49.6495 290.632 49.2311 290.31 48.8702L261.328 18.4861C260.491 17.6351 260.016 16.4943 260 15.3013V54.1339C260.015 55.3279 260.491 56.47 261.328 57.3216Z" fill="#37474F"/>
<path d="M262.07 22.8537C262.031 22.8537 261.993 22.8381 261.965 22.8104C261.938 22.7826 261.922 22.745 261.922 22.7058V22.2622C261.923 22.2327 261.932 22.204 261.949 22.1797C261.965 22.1555 261.989 22.1368 262.017 22.1262C262.044 22.115 262.073 22.1121 262.102 22.1179C262.13 22.1237 262.156 22.1379 262.176 22.1587L262.472 22.4811C262.486 22.4948 262.497 22.5112 262.505 22.5292C262.512 22.5472 262.516 22.5665 262.516 22.586C262.516 22.6056 262.512 22.6249 262.505 22.6429C262.497 22.6609 262.486 22.6773 262.472 22.691C262.459 22.7048 262.443 22.7157 262.425 22.7232C262.407 22.7307 262.388 22.7345 262.369 22.7345C262.349 22.7345 262.33 22.7307 262.313 22.7232C262.295 22.7157 262.279 22.7048 262.265 22.691L262.212 22.6378V22.694C262.214 22.7139 262.211 22.7339 262.205 22.7528C262.198 22.7718 262.188 22.7892 262.175 22.8041C262.162 22.8191 262.146 22.8311 262.128 22.8397C262.11 22.8482 262.09 22.8529 262.07 22.8537Z" fill="#455A64"/>
<path d="M289.275 81.8363C289.236 81.8356 289.199 81.8197 289.172 81.7922C289.144 81.7646 289.128 81.7274 289.127 81.6885V80.8161C289.127 80.7769 289.143 80.7393 289.171 80.7116C289.198 80.6838 289.236 80.6683 289.275 80.6683C289.314 80.6683 289.352 80.6838 289.38 80.7116C289.408 80.7393 289.423 80.7769 289.423 80.8161V81.6885C289.423 81.7277 289.408 81.7653 289.38 81.793C289.352 81.8207 289.314 81.8363 289.275 81.8363ZM289.275 79.5091C289.236 79.5091 289.198 79.4935 289.171 79.4658C289.143 79.438 289.127 79.4004 289.127 79.3612V78.4948C289.127 78.4556 289.143 78.418 289.171 78.3902C289.198 78.3625 289.236 78.3469 289.275 78.3469C289.314 78.3469 289.352 78.3625 289.38 78.3902C289.408 78.418 289.423 78.4556 289.423 78.4948V79.3671C289.423 79.4064 289.408 79.444 289.38 79.4717C289.352 79.4994 289.314 79.515 289.275 79.515V79.5091ZM289.275 77.1818C289.236 77.1818 289.198 77.1663 289.171 77.1385C289.143 77.1108 289.127 77.0732 289.127 77.034V76.1616C289.127 76.1224 289.143 76.0848 289.171 76.0571C289.198 76.0294 289.236 76.0138 289.275 76.0138C289.314 76.0138 289.352 76.0294 289.38 76.0571C289.408 76.0848 289.423 76.1224 289.423 76.1616V77.034C289.424 77.0539 289.421 77.0738 289.414 77.0924C289.407 77.111 289.396 77.128 289.382 77.1424C289.368 77.1567 289.352 77.1682 289.333 77.176C289.315 77.1838 289.295 77.1878 289.275 77.1878V77.1818ZM289.275 74.8546C289.236 74.8546 289.198 74.839 289.171 74.8113C289.143 74.7836 289.127 74.746 289.127 74.7068V73.8196C289.127 73.7804 289.143 73.7428 289.171 73.7151C289.198 73.6873 289.236 73.6718 289.275 73.6718C289.314 73.6718 289.352 73.6873 289.38 73.7151C289.408 73.7428 289.423 73.7804 289.423 73.8196V74.7068C289.424 74.7267 289.421 74.7465 289.414 74.7652C289.407 74.7838 289.396 74.8008 289.382 74.8152C289.368 74.8295 289.352 74.8409 289.333 74.8487C289.315 74.8565 289.295 74.8605 289.275 74.8605V74.8546ZM289.275 72.5274C289.236 72.5274 289.198 72.5118 289.171 72.4841C289.143 72.4563 289.127 72.4187 289.127 72.3795V71.4924C289.127 71.4532 289.143 71.4156 289.171 71.3878C289.198 71.3601 289.236 71.3445 289.275 71.3445C289.314 71.3445 289.352 71.3601 289.38 71.3878C289.408 71.4156 289.423 71.4532 289.423 71.4924V72.3795C289.424 72.3994 289.421 72.4193 289.414 72.4379C289.407 72.4565 289.396 72.4736 289.382 72.4879C289.368 72.5023 289.352 72.5137 289.333 72.5215C289.315 72.5293 289.295 72.5333 289.275 72.5333V72.5274ZM289.275 70.2001C289.236 70.2001 289.198 70.1846 289.171 70.1568C289.143 70.1291 289.127 70.0915 289.127 70.0523V69.1799C289.128 69.141 289.144 69.1038 289.172 69.0762C289.199 69.0487 289.236 69.0328 289.275 69.0321C289.314 69.0321 289.352 69.0477 289.38 69.0754C289.408 69.1031 289.423 69.1407 289.423 69.1799V70.0523C289.424 70.0722 289.421 70.0921 289.414 70.1107C289.407 70.1293 289.396 70.1463 289.382 70.1607C289.368 70.175 289.352 70.1865 289.333 70.1943C289.315 70.2021 289.295 70.2061 289.275 70.2061V70.2001ZM289.275 67.8729C289.236 67.8729 289.198 67.8573 289.171 67.8296C289.143 67.8019 289.127 67.7643 289.127 67.725V66.8527C289.128 66.8137 289.144 66.7766 289.172 66.749C289.199 66.7214 289.236 66.7056 289.275 66.7048C289.314 66.7048 289.352 66.7204 289.38 66.7482C289.408 66.7759 289.423 66.8135 289.423 66.8527V67.725C289.424 67.745 289.421 67.7648 289.414 67.7834C289.407 67.8021 289.396 67.8191 289.382 67.8334C289.368 67.8478 289.352 67.8592 289.333 67.867C289.315 67.8748 289.295 67.8788 289.275 67.8788V67.8729ZM289.275 65.5486C289.236 65.5479 289.199 65.532 289.172 65.5045C289.144 65.4769 289.128 65.4398 289.127 65.4008V64.5136C289.128 64.4747 289.144 64.4375 289.172 64.4099C289.199 64.3824 289.236 64.3665 289.275 64.3658C289.314 64.3658 289.352 64.3814 289.38 64.4091C289.408 64.4368 289.423 64.4744 289.423 64.5136V65.4008C289.424 65.4207 289.421 65.4405 289.414 65.4592C289.407 65.4778 289.396 65.4948 289.382 65.5092C289.368 65.5235 289.352 65.5349 289.333 65.5427C289.315 65.5505 289.295 65.5546 289.275 65.5545V65.5486ZM289.275 63.2214C289.236 63.2206 289.199 63.2048 289.172 63.1772C289.144 63.1497 289.128 63.1125 289.127 63.0735V62.2012C289.127 62.162 289.143 62.1244 289.171 62.0966C289.198 62.0689 289.236 62.0533 289.275 62.0533C289.314 62.0533 289.352 62.0689 289.38 62.0966C289.408 62.1244 289.423 62.162 289.423 62.2012V63.0735C289.424 63.0934 289.421 63.1133 289.414 63.1319C289.407 63.1506 289.396 63.1676 289.382 63.1819C289.368 63.1963 289.352 63.2077 289.333 63.2155C289.315 63.2233 289.295 63.2273 289.275 63.2273V63.2214ZM289.275 60.8941C289.236 60.8934 289.199 60.8776 289.172 60.85C289.144 60.8224 289.128 60.7853 289.127 60.7463V59.874C289.127 59.8347 289.143 59.7971 289.171 59.7694C289.198 59.7417 289.236 59.7261 289.275 59.7261C289.314 59.7261 289.352 59.7417 289.38 59.7694C289.408 59.7971 289.423 59.8347 289.423 59.874V60.7463C289.424 60.7662 289.421 60.7861 289.414 60.8047C289.407 60.8233 289.396 60.8403 289.382 60.8547C289.368 60.869 289.352 60.8805 289.333 60.8883C289.315 60.8961 289.295 60.9001 289.275 60.9001V60.8941ZM289.275 58.5669C289.236 58.5662 289.199 58.5503 289.172 58.5228C289.144 58.4952 289.128 58.458 289.127 58.4191V57.5467C289.127 57.5075 289.143 57.4699 289.171 57.4422C289.198 57.4144 289.236 57.3989 289.275 57.3989C289.314 57.3989 289.352 57.4144 289.38 57.4422C289.408 57.4699 289.423 57.5075 289.423 57.5467V58.4191C289.424 58.439 289.421 58.4588 289.414 58.4775C289.407 58.4961 289.396 58.5131 289.382 58.5275C289.368 58.5418 289.352 58.5532 289.333 58.561C289.315 58.5688 289.295 58.5728 289.275 58.5728V58.5669ZM289.275 56.2397C289.236 56.2397 289.198 56.2241 289.171 56.1964C289.143 56.1686 289.127 56.131 289.127 56.0918V55.2224C289.127 55.1832 289.143 55.1456 289.171 55.1179C289.198 55.0902 289.236 55.0746 289.275 55.0746C289.314 55.0746 289.352 55.0902 289.38 55.1179C289.408 55.1456 289.423 55.1832 289.423 55.2224V56.1096C289.42 56.1467 289.403 56.1813 289.376 56.2066C289.348 56.2318 289.312 56.2457 289.275 56.2456V56.2397ZM289.275 53.9124C289.236 53.9124 289.198 53.8969 289.171 53.8691C289.143 53.8414 289.127 53.8038 289.127 53.7646V52.8922C289.127 52.853 289.143 52.8154 289.171 52.7877C289.198 52.76 289.236 52.7444 289.275 52.7444C289.314 52.7444 289.352 52.76 289.38 52.7877C289.408 52.8154 289.423 52.853 289.423 52.8922V53.7646C289.424 53.7845 289.421 53.8044 289.414 53.823C289.407 53.8416 289.396 53.8586 289.382 53.873C289.368 53.8873 289.352 53.8988 289.333 53.9066C289.315 53.9144 289.295 53.9184 289.275 53.9184V53.9124ZM289.275 51.5734C289.257 51.5746 289.238 51.572 289.22 51.5657C289.202 51.5595 289.186 51.5497 289.172 51.537C289.158 51.5243 289.147 51.5089 289.14 51.4917C289.132 51.4746 289.128 51.4561 289.127 51.4374C289.114 51.2529 289.07 51.072 288.997 50.9021C288.962 50.8164 288.929 50.7395 288.897 50.6744C288.888 50.6572 288.882 50.6384 288.88 50.619C288.879 50.5996 288.881 50.58 288.887 50.5615C288.893 50.5431 288.903 50.526 288.916 50.5113C288.929 50.4967 288.944 50.4848 288.962 50.4763C288.979 50.4672 288.998 50.4617 289.017 50.46C289.037 50.4584 289.056 50.4607 289.075 50.4668C289.093 50.4728 289.11 50.4826 289.125 50.4954C289.14 50.5082 289.151 50.5238 289.16 50.5414C289.195 50.6153 289.234 50.6981 289.272 50.7957C289.356 50.9911 289.407 51.1989 289.423 51.4107C289.426 51.4526 289.411 51.4938 289.384 51.5253C289.356 51.5569 289.317 51.5763 289.275 51.5793V51.5734ZM288.092 49.6601C288.052 49.6589 288.014 49.642 287.986 49.6128L287.395 48.983C287.367 48.9543 287.353 48.9161 287.354 48.8768C287.355 48.8374 287.372 48.8001 287.4 48.773C287.429 48.746 287.467 48.7314 287.507 48.7325C287.546 48.7336 287.583 48.7503 287.61 48.7789L288.202 49.4088C288.216 49.4225 288.227 49.4389 288.234 49.4569C288.242 49.4749 288.246 49.4942 288.246 49.5138C288.246 49.5333 288.242 49.5526 288.234 49.5706C288.227 49.5886 288.216 49.605 288.202 49.6187C288.186 49.635 288.167 49.6477 288.146 49.6559C288.125 49.664 288.103 49.6675 288.081 49.6661L288.092 49.6601ZM286.487 47.9746C286.447 47.9745 286.408 47.9585 286.38 47.9302L285.789 47.2974C285.765 47.2686 285.753 47.2319 285.755 47.1947C285.757 47.1574 285.774 47.1224 285.801 47.0966C285.828 47.0707 285.863 47.0561 285.901 47.0555C285.938 47.0549 285.974 47.0684 286.002 47.0934L286.593 47.7262C286.613 47.7472 286.626 47.7733 286.63 47.8015C286.635 47.8297 286.632 47.8587 286.621 47.885C286.609 47.9113 286.591 47.9337 286.567 47.9496C286.543 47.9656 286.515 47.9742 286.487 47.9746ZM284.881 46.292C284.861 46.2923 284.841 46.2885 284.823 46.2809C284.805 46.2732 284.788 46.2619 284.775 46.2476L284.183 45.6148C284.169 45.6011 284.158 45.5847 284.151 45.5667C284.143 45.5487 284.139 45.5294 284.139 45.5099C284.139 45.4903 284.143 45.471 284.151 45.453C284.158 45.435 284.169 45.4186 284.183 45.4049C284.197 45.3911 284.213 45.3802 284.23 45.3727C284.248 45.3652 284.267 45.3614 284.287 45.3614C284.306 45.3614 284.325 45.3652 284.343 45.3727C284.361 45.3802 284.377 45.3911 284.39 45.4049L284.982 46.0377C285.001 46.0587 285.014 46.0848 285.019 46.113C285.024 46.1412 285.02 46.1702 285.009 46.1965C284.998 46.2228 284.979 46.2452 284.955 46.2611C284.932 46.2771 284.904 46.2857 284.875 46.2861L284.881 46.292ZM283.272 44.6094C283.25 44.6146 283.227 44.6144 283.205 44.6087C283.183 44.6031 283.162 44.5921 283.145 44.5769L282.554 43.947C282.54 43.9333 282.529 43.9169 282.521 43.8989C282.514 43.8809 282.51 43.8616 282.51 43.8421C282.51 43.8225 282.514 43.8032 282.521 43.7852C282.529 43.7672 282.54 43.7508 282.554 43.7371C282.567 43.7232 282.584 43.7122 282.602 43.7047C282.62 43.6972 282.639 43.6933 282.659 43.6933C282.678 43.6933 282.698 43.6972 282.716 43.7047C282.734 43.7122 282.75 43.7232 282.764 43.7371L283.355 44.3669C283.369 44.3807 283.38 44.397 283.387 44.415C283.395 44.4331 283.399 44.4524 283.399 44.4719C283.399 44.4914 283.395 44.5108 283.387 44.5288C283.38 44.5468 283.369 44.5631 283.355 44.5769C283.329 44.6001 283.296 44.6137 283.261 44.6153L283.272 44.6094ZM281.667 42.9327C281.626 42.9315 281.588 42.9146 281.56 42.8854L280.969 42.2556C280.942 42.2269 280.927 42.1887 280.928 42.1494C280.929 42.11 280.946 42.0727 280.975 42.0456C281.003 42.0186 281.041 42.004 281.081 42.0051C281.12 42.0062 281.158 42.0229 281.185 42.0515L281.776 42.6814C281.79 42.6951 281.801 42.7115 281.808 42.7295C281.816 42.7475 281.82 42.7669 281.82 42.7864C281.82 42.8059 281.816 42.8252 281.808 42.8432C281.801 42.8612 281.79 42.8776 281.776 42.8913C281.746 42.919 281.707 42.9339 281.667 42.9327ZM280.061 41.2472C280.021 41.2471 279.983 41.2311 279.954 41.2028L279.363 40.57C279.339 40.5412 279.327 40.5045 279.329 40.4673C279.332 40.43 279.348 40.395 279.375 40.3692C279.402 40.3434 279.437 40.3287 279.475 40.3281C279.512 40.3275 279.548 40.341 279.576 40.366L280.167 40.9988C280.181 41.0123 280.192 41.0284 280.2 41.0462C280.207 41.0639 280.211 41.083 280.211 41.1023C280.211 41.1216 280.207 41.1407 280.2 41.1584C280.192 41.1762 280.181 41.1923 280.167 41.2058C280.153 41.2219 280.134 41.2341 280.113 41.2413C280.093 41.2485 280.071 41.2505 280.049 41.2472H280.061ZM278.455 39.5646C278.435 39.5651 278.416 39.5614 278.397 39.5537C278.379 39.5461 278.362 39.5347 278.349 39.5203L277.757 38.8874C277.742 38.8738 277.73 38.8573 277.722 38.8387C277.713 38.8202 277.709 38.8002 277.708 38.7798C277.708 38.7595 277.712 38.7393 277.72 38.7205C277.728 38.7018 277.739 38.6848 277.754 38.6707C277.769 38.6567 277.786 38.6458 277.805 38.6388C277.824 38.6317 277.845 38.6287 277.865 38.6299C277.885 38.6311 277.905 38.6364 277.923 38.6456C277.941 38.6549 277.957 38.6677 277.97 38.6834L278.562 39.3162C278.575 39.3297 278.586 39.3458 278.594 39.3636C278.601 39.3814 278.605 39.4004 278.605 39.4197C278.605 39.439 278.601 39.4581 278.594 39.4758C278.586 39.4936 278.575 39.5097 278.562 39.5232C278.546 39.5382 278.527 39.5496 278.507 39.5568C278.487 39.5639 278.465 39.5666 278.443 39.5646H278.455ZM276.847 37.882C276.826 37.8821 276.807 37.8779 276.788 37.8698C276.77 37.8616 276.753 37.8497 276.74 37.8347L276.149 37.2048C276.135 37.1907 276.125 37.174 276.118 37.1558C276.111 37.1376 276.108 37.1181 276.108 37.0986C276.109 37.0792 276.113 37.06 276.121 37.0421C276.129 37.0243 276.14 37.0083 276.155 36.9949C276.169 36.9815 276.185 36.971 276.204 36.9641C276.222 36.9571 276.241 36.9538 276.261 36.9544C276.28 36.9549 276.299 36.9593 276.317 36.9673C276.335 36.9752 276.351 36.9866 276.365 37.0008L276.956 37.6307C276.97 37.6444 276.981 37.6608 276.988 37.6788C276.996 37.6968 277 37.7161 277 37.7356C277 37.7552 276.996 37.7745 276.988 37.7925C276.981 37.8105 276.97 37.8269 276.956 37.8406C276.94 37.8558 276.921 37.8674 276.9 37.8746C276.879 37.8817 276.857 37.8842 276.835 37.882H276.847ZM275.241 36.1965C275.201 36.1964 275.163 36.1804 275.134 36.1521L274.543 35.5223C274.529 35.5085 274.518 35.4922 274.511 35.4741C274.503 35.4561 274.499 35.4368 274.499 35.4173C274.499 35.3978 274.503 35.3784 274.511 35.3604C274.518 35.3424 274.529 35.326 274.543 35.3123C274.556 35.2985 274.573 35.2876 274.59 35.2801C274.608 35.2727 274.627 35.2688 274.646 35.2688C274.666 35.2688 274.685 35.2727 274.703 35.2801C274.72 35.2876 274.736 35.2985 274.75 35.3123L275.341 35.9422C275.355 35.9559 275.366 35.9723 275.374 35.9903C275.381 36.0083 275.385 36.0276 275.385 36.0471C275.385 36.0667 275.381 36.086 275.374 36.104C275.366 36.122 275.355 36.1384 275.341 36.1521C275.327 36.1666 275.309 36.1779 275.29 36.1856C275.27 36.1932 275.25 36.1969 275.229 36.1965H275.241ZM273.623 34.5228C273.603 34.523 273.584 34.5193 273.565 34.5116C273.547 34.504 273.531 34.4927 273.517 34.4784L272.925 33.8456C272.912 33.8321 272.901 33.816 272.893 33.7982C272.886 33.7804 272.882 33.7614 272.882 33.7421C272.882 33.7228 272.886 33.7037 272.893 33.686C272.901 33.6682 272.912 33.6521 272.925 33.6386C272.939 33.6247 272.956 33.6137 272.974 33.6062C272.992 33.5987 273.011 33.5949 273.03 33.5949C273.05 33.5949 273.069 33.5987 273.087 33.6062C273.105 33.6137 273.122 33.6247 273.135 33.6386L273.727 34.2714C273.741 34.2849 273.752 34.301 273.759 34.3188C273.766 34.3365 273.77 34.3556 273.77 34.3749C273.77 34.3942 273.766 34.4133 273.759 34.431C273.752 34.4488 273.741 34.4649 273.727 34.4784C273.714 34.4929 273.698 34.5044 273.68 34.5121C273.662 34.5197 273.643 34.5234 273.623 34.5228ZM272.015 32.8402C271.975 32.8401 271.936 32.8241 271.908 32.7958L271.317 32.1571C271.303 32.1433 271.292 32.127 271.284 32.109C271.277 32.091 271.273 32.0716 271.273 32.0521C271.273 32.0326 271.277 32.0133 271.284 31.9952C271.292 31.9772 271.303 31.9609 271.317 31.9471C271.331 31.9333 271.347 31.9223 271.365 31.9148C271.383 31.9073 271.402 31.9034 271.422 31.9034C271.441 31.9034 271.461 31.9073 271.479 31.9148C271.497 31.9223 271.513 31.9333 271.527 31.9471L272.118 32.5799C272.132 32.5934 272.143 32.6095 272.15 32.6273C272.158 32.6451 272.162 32.6642 272.162 32.6834C272.162 32.7027 272.158 32.7218 272.15 32.7396C272.143 32.7573 272.132 32.7735 272.118 32.7869C272.091 32.8143 272.054 32.8301 272.015 32.8313V32.8402ZM270.409 31.1576C270.389 31.1577 270.369 31.1535 270.351 31.1453C270.332 31.1372 270.316 31.1252 270.303 31.1103L269.711 30.4804C269.684 30.4518 269.669 30.4136 269.671 30.3742C269.672 30.3348 269.688 30.2975 269.717 30.2705C269.746 30.2434 269.784 30.2288 269.823 30.2299C269.863 30.231 269.9 30.2477 269.927 30.2764L270.518 30.9062C270.532 30.92 270.543 30.9363 270.551 30.9543C270.558 30.9724 270.562 30.9917 270.562 31.0112C270.562 31.0307 270.558 31.0501 270.551 31.0681C270.543 31.0861 270.532 31.1024 270.518 31.1162C270.487 31.1407 270.448 31.1523 270.409 31.1487V31.1576ZM268.803 29.475C268.763 29.4738 268.725 29.4568 268.697 29.4277L268.105 28.7978C268.078 28.7696 268.063 28.7316 268.063 28.6922C268.064 28.6529 268.08 28.6153 268.108 28.5879C268.137 28.5604 268.175 28.5453 268.214 28.5459C268.253 28.5464 268.291 28.5626 268.318 28.5908L268.91 29.2236C268.924 29.2374 268.935 29.2537 268.942 29.2718C268.95 29.2898 268.953 29.3091 268.953 29.3286C268.953 29.3481 268.95 29.3675 268.942 29.3855C268.935 29.4035 268.924 29.4198 268.91 29.4336C268.895 29.4458 268.878 29.4549 268.86 29.4605C268.841 29.4661 268.822 29.468 268.803 29.4661V29.475ZM267.198 27.7894C267.177 27.7898 267.157 27.786 267.138 27.7784C267.12 27.7708 267.102 27.7595 267.088 27.7451L266.497 27.1123C266.483 27.0988 266.472 27.0827 266.465 27.0649C266.457 27.0471 266.453 27.0281 266.453 27.0088C266.453 26.9895 266.457 26.9704 266.465 26.9526C266.472 26.9349 266.483 26.9188 266.497 26.9053C266.51 26.8914 266.527 26.8804 266.545 26.8729C266.563 26.8654 266.582 26.8615 266.602 26.8615C266.621 26.8615 266.641 26.8654 266.659 26.8729C266.677 26.8804 266.693 26.8914 266.707 26.9053L267.298 27.5381C267.312 27.5516 267.323 27.5677 267.33 27.5855C267.338 27.6032 267.342 27.6223 267.342 27.6416C267.342 27.6609 267.338 27.68 267.33 27.6977C267.323 27.7155 267.312 27.7316 267.298 27.7451C267.284 27.7573 267.269 27.7668 267.251 27.7729C267.234 27.779 267.216 27.7816 267.198 27.7806V27.7894ZM265.589 26.1069C265.569 26.107 265.549 26.1028 265.531 26.0946C265.512 26.0865 265.496 26.0745 265.482 26.0595L264.891 25.4297C264.864 25.4011 264.849 25.3629 264.85 25.3235C264.852 25.2841 264.868 25.2468 264.897 25.2197C264.926 25.1927 264.964 25.1781 265.003 25.1792C265.043 25.1803 265.08 25.197 265.107 25.2256L265.698 25.8555C265.712 25.8693 265.723 25.8856 265.731 25.9036C265.738 25.9216 265.742 25.941 265.742 25.9605C265.742 25.98 265.738 25.9993 265.731 26.0173C265.723 26.0354 265.712 26.0517 265.698 26.0655C265.667 26.0899 265.628 26.1016 265.589 26.098V26.1069ZM263.983 24.4243C263.963 24.4244 263.943 24.4202 263.925 24.412C263.907 24.4039 263.89 24.3919 263.877 24.377L263.285 23.7471C263.271 23.7334 263.26 23.717 263.253 23.699C263.245 23.681 263.242 23.6616 263.242 23.6421C263.242 23.6226 263.245 23.6033 263.253 23.5853C263.26 23.5672 263.271 23.5509 263.285 23.5371C263.299 23.5234 263.315 23.5124 263.333 23.505C263.35 23.4975 263.37 23.4937 263.389 23.4937C263.408 23.4937 263.427 23.4975 263.445 23.505C263.463 23.5124 263.479 23.5234 263.492 23.5371L264.084 24.167C264.098 24.1807 264.109 24.1971 264.116 24.2151C264.124 24.2331 264.127 24.2525 264.127 24.272C264.127 24.2915 264.124 24.3108 264.116 24.3288C264.109 24.3469 264.098 24.3632 264.084 24.377C264.056 24.4022 264.02 24.416 263.983 24.4154V24.4243Z" fill="#455A64"/>
<path d="M289.275 83.7405C289.235 83.7404 289.197 83.7244 289.169 83.6961L288.873 83.3738C288.86 83.3596 288.849 83.343 288.842 83.3247C288.835 83.3065 288.832 83.2871 288.833 83.2676C288.833 83.2481 288.838 83.2289 288.845 83.2111C288.853 83.1933 288.865 83.1773 288.879 83.1639C288.893 83.1505 288.91 83.14 288.928 83.133C288.946 83.1261 288.966 83.1228 288.985 83.1233C289.005 83.1239 289.024 83.1283 289.042 83.1362C289.06 83.1442 289.076 83.1556 289.089 83.1698L289.139 83.223V83.1491C289.139 83.1099 289.155 83.0723 289.183 83.0445C289.21 83.0168 289.248 83.0012 289.287 83.0012C289.326 83.0012 289.364 83.0168 289.392 83.0445C289.419 83.0723 289.435 83.1099 289.435 83.1491V83.5926C289.436 83.622 289.427 83.6509 289.411 83.6752C289.394 83.6996 289.371 83.7183 289.343 83.7287C289.322 83.7388 289.299 83.7429 289.275 83.7405Z" fill="#455A64"/>
<path d="M287.933 82.3328C287.913 82.3332 287.893 82.3295 287.875 82.3219C287.856 82.3143 287.84 82.3028 287.826 82.2884L287.202 81.6349C287.175 81.6068 287.16 81.5691 287.16 81.5299C287.16 81.4907 287.175 81.4531 287.202 81.4249C287.216 81.4111 287.232 81.4001 287.25 81.3926C287.268 81.3851 287.288 81.3812 287.307 81.3812C287.327 81.3812 287.346 81.3851 287.364 81.3926C287.382 81.4001 287.399 81.4111 287.412 81.4249L288.036 82.0785C288.05 82.092 288.061 82.1081 288.068 82.1258C288.076 82.1436 288.08 82.1627 288.08 82.182C288.08 82.2012 288.076 82.2203 288.068 82.2381C288.061 82.2559 288.05 82.272 288.036 82.2855C288.009 82.3141 287.972 82.3311 287.933 82.3328ZM286.271 80.594C286.251 80.5941 286.231 80.5899 286.213 80.5818C286.194 80.5736 286.178 80.5617 286.164 80.5467L285.54 79.8961C285.513 79.8675 285.499 79.8293 285.5 79.7899C285.501 79.7506 285.518 79.7132 285.546 79.6862C285.575 79.6591 285.613 79.6445 285.653 79.6456C285.692 79.6468 285.729 79.6635 285.756 79.6921L286.377 80.3427C286.391 80.3564 286.402 80.3727 286.41 80.3908C286.417 80.4088 286.421 80.4281 286.421 80.4476C286.421 80.4671 286.417 80.4865 286.41 80.5045C286.402 80.5225 286.391 80.5389 286.377 80.5526C286.348 80.5791 286.31 80.5938 286.271 80.594ZM284.624 78.8552C284.604 78.8553 284.584 78.8512 284.565 78.843C284.547 78.8348 284.531 78.8229 284.517 78.8079L283.896 78.1574C283.882 78.1436 283.871 78.1273 283.864 78.1092C283.856 78.0912 283.853 78.0719 283.853 78.0524C283.853 78.0329 283.856 78.0135 283.864 77.9955C283.871 77.9775 283.882 77.9611 283.896 77.9474C283.91 77.9335 283.926 77.9225 283.944 77.915C283.962 77.9075 283.982 77.9037 284.001 77.9037C284.021 77.9037 284.04 77.9075 284.058 77.915C284.076 77.9225 284.093 77.9335 284.106 77.9474L284.727 78.598C284.741 78.6117 284.752 78.6281 284.76 78.6461C284.767 78.6641 284.771 78.6834 284.771 78.7029C284.771 78.7225 284.767 78.7418 284.76 78.7598C284.752 78.7778 284.741 78.7942 284.727 78.8079C284.7 78.8363 284.663 78.8533 284.624 78.8552ZM282.95 77.1046C282.93 77.1044 282.91 77.1 282.892 77.0919C282.874 77.0838 282.857 77.072 282.844 77.0573L282.22 76.4038C282.196 76.375 282.184 76.3383 282.186 76.3011C282.188 76.2638 282.204 76.2288 282.231 76.2029C282.258 76.1771 282.294 76.1624 282.331 76.1619C282.369 76.1613 282.405 76.1748 282.433 76.1998L283.056 76.8533C283.07 76.867 283.081 76.8834 283.089 76.9014C283.096 76.9194 283.1 76.9387 283.1 76.9583C283.1 76.9778 283.096 76.9971 283.089 77.0151C283.081 77.0331 283.07 77.0495 283.056 77.0632C283.028 77.0904 282.99 77.1053 282.95 77.1046ZM281.288 75.3629C281.248 75.3628 281.21 75.3468 281.182 75.3185L280.558 74.665C280.544 74.6515 280.533 74.6354 280.526 74.6177C280.518 74.5999 280.514 74.5808 280.514 74.5615C280.514 74.5422 280.518 74.5232 280.526 74.5054C280.533 74.4876 280.544 74.4715 280.558 74.458C280.571 74.4442 280.588 74.4332 280.606 74.4257C280.624 74.4182 280.643 74.4143 280.663 74.4143C280.682 74.4143 280.702 74.4182 280.72 74.4257C280.738 74.4332 280.754 74.4442 280.768 74.458L281.389 75.1115C281.403 75.1253 281.414 75.1416 281.421 75.1597C281.429 75.1777 281.432 75.197 281.432 75.2165C281.432 75.236 281.429 75.2554 281.421 75.2734C281.414 75.2914 281.403 75.3078 281.389 75.3215C281.363 75.3512 281.327 75.3702 281.288 75.3747V75.3629ZM279.626 73.6241C279.586 73.624 279.548 73.6081 279.52 73.5798L278.899 72.9263C278.884 72.9126 278.872 72.8961 278.863 72.8776C278.855 72.8591 278.85 72.839 278.85 72.8187C278.85 72.7983 278.853 72.7781 278.861 72.7594C278.869 72.7406 278.881 72.7236 278.895 72.7096C278.91 72.6955 278.927 72.6846 278.947 72.6776C278.966 72.6705 278.986 72.6675 279.006 72.6687C279.027 72.6699 279.046 72.6753 279.065 72.6845C279.083 72.6937 279.099 72.7065 279.112 72.7222L279.736 73.3757C279.749 73.3892 279.76 73.4053 279.768 73.4231C279.775 73.4409 279.779 73.4599 279.779 73.4792C279.779 73.4985 279.775 73.5176 279.768 73.5354C279.76 73.5531 279.749 73.5692 279.736 73.5827C279.723 73.5993 279.706 73.6127 279.687 73.6219C279.668 73.6312 279.647 73.636 279.626 73.636V73.6241ZM277.967 71.8854C277.947 71.8856 277.928 71.8818 277.909 71.8742C277.891 71.8666 277.875 71.8553 277.861 71.841L277.231 71.1904C277.217 71.1767 277.206 71.1603 277.199 71.1423C277.191 71.1243 277.187 71.105 277.187 71.0855C277.187 71.0659 277.191 71.0466 277.199 71.0286C277.206 71.0106 277.217 70.9942 277.231 70.9805C277.245 70.9667 277.261 70.9558 277.278 70.9483C277.296 70.9408 277.315 70.937 277.335 70.937C277.354 70.937 277.373 70.9408 277.391 70.9483C277.408 70.9558 277.425 70.9667 277.438 70.9805L278.062 71.631C278.076 71.6448 278.087 71.6611 278.094 71.6792C278.102 71.6972 278.106 71.7165 278.106 71.736C278.106 71.7555 278.102 71.7749 278.094 71.7929C278.087 71.8109 278.076 71.8273 278.062 71.841C278.039 71.8714 278.005 71.8916 277.967 71.8972V71.8854ZM276.305 70.1466C276.285 70.1467 276.265 70.1425 276.247 70.1343C276.229 70.1262 276.212 70.1142 276.199 70.0993L275.575 69.4487C275.548 69.4201 275.533 69.3819 275.535 69.3425C275.536 69.3031 275.552 69.2658 275.581 69.2387C275.61 69.2117 275.648 69.1971 275.687 69.1982C275.727 69.1993 275.764 69.216 275.791 69.2447L276.412 69.8952C276.426 69.909 276.437 69.9253 276.444 69.9433C276.452 69.9614 276.456 69.9807 276.456 70.0002C276.456 70.0197 276.452 70.0391 276.444 70.0571C276.437 70.0751 276.426 70.0914 276.412 70.1052C276.399 70.1207 276.382 70.1334 276.364 70.1425C276.346 70.1516 276.326 70.1571 276.305 70.1584V70.1466ZM274.644 68.4078C274.623 68.4079 274.604 68.4037 274.585 68.3956C274.567 68.3874 274.55 68.3755 274.537 68.3605L273.916 67.7099C273.901 67.6963 273.889 67.6798 273.88 67.6612C273.872 67.6427 273.867 67.6227 273.867 67.6023C273.867 67.582 273.871 67.5618 273.879 67.543C273.886 67.5243 273.898 67.5073 273.913 67.4932C273.927 67.4792 273.945 67.4683 273.964 67.4613C273.983 67.4542 274.003 67.4512 274.024 67.4524C274.044 67.4536 274.064 67.4589 274.082 67.4681C274.1 67.4774 274.116 67.4902 274.129 67.5059L274.753 68.1564C274.767 68.1702 274.778 68.1866 274.785 68.2046C274.793 68.2226 274.797 68.2419 274.797 68.2614C274.797 68.2809 274.793 68.3003 274.785 68.3183C274.778 68.3363 274.767 68.3527 274.753 68.3664C274.739 68.3823 274.723 68.3951 274.704 68.4043C274.685 68.4135 274.664 68.4187 274.644 68.4196V68.4078ZM272.985 66.669C272.944 66.6678 272.906 66.6508 272.878 66.6217L272.254 65.9682C272.23 65.9394 272.218 65.9027 272.221 65.8655C272.223 65.8282 272.239 65.7932 272.266 65.7673C272.293 65.7415 272.329 65.7268 272.366 65.7263C272.403 65.7257 272.439 65.7392 272.467 65.7642L273.091 66.4295C273.105 66.4433 273.116 66.4596 273.123 66.4776C273.131 66.4956 273.135 66.515 273.135 66.5345C273.135 66.554 273.131 66.5733 273.123 66.5914C273.116 66.6094 273.105 66.6257 273.091 66.6395C273.077 66.6532 273.06 66.664 273.042 66.6711C273.024 66.6782 273.004 66.6815 272.985 66.6809V66.669ZM271.317 64.9391C271.277 64.939 271.239 64.9231 271.21 64.8948L270.586 64.2413C270.573 64.2278 270.562 64.2117 270.554 64.1939C270.547 64.1761 270.543 64.157 270.543 64.1378C270.543 64.1185 270.547 64.0994 270.554 64.0816C270.562 64.0639 270.573 64.0477 270.586 64.0343C270.6 64.0204 270.617 64.0094 270.635 64.0019C270.653 63.9944 270.672 63.9905 270.691 63.9905C270.711 63.9905 270.73 63.9944 270.748 64.0019C270.766 64.0094 270.783 64.0204 270.796 64.0343L271.417 64.6878C271.438 64.7082 271.452 64.7345 271.458 64.7632C271.464 64.7919 271.461 64.8216 271.449 64.8484C271.438 64.8753 271.418 64.8981 271.394 64.9137C271.369 64.9294 271.34 64.9372 271.311 64.9362L271.317 64.9391ZM269.664 63.2063C269.644 63.2066 269.623 63.2029 269.605 63.1952C269.586 63.1876 269.569 63.1763 269.554 63.1619L268.933 62.5084C268.918 62.4948 268.906 62.4782 268.898 62.4597C268.889 62.4412 268.885 62.4211 268.884 62.4008C268.884 62.3805 268.888 62.3603 268.896 62.3415C268.904 62.3227 268.915 62.3058 268.93 62.2917C268.945 62.2776 268.962 62.2667 268.981 62.2597C269 62.2527 269.021 62.2497 269.041 62.2509C269.061 62.252 269.081 62.2574 269.099 62.2666C269.117 62.2758 269.133 62.2887 269.146 62.3044L269.77 62.9579C269.784 62.9714 269.795 62.9875 269.802 63.0052C269.81 63.023 269.814 63.0421 269.814 63.0614C269.814 63.0807 269.81 63.0997 269.802 63.1175C269.795 63.1353 269.784 63.1514 269.77 63.1649C269.756 63.1789 269.74 63.1899 269.721 63.197C269.703 63.2042 269.683 63.2073 269.664 63.2063ZM268.002 61.4675C267.962 61.4674 267.924 61.4515 267.895 61.4231L267.272 60.7696C267.258 60.7559 267.247 60.7395 267.239 60.7215C267.232 60.7035 267.228 60.6842 267.228 60.6646C267.228 60.6451 267.232 60.6258 267.239 60.6078C267.247 60.5898 267.258 60.5734 267.272 60.5597C267.285 60.5459 267.301 60.535 267.319 60.5275C267.337 60.52 267.356 60.5162 267.375 60.5162C267.394 60.5162 267.413 60.52 267.431 60.5275C267.449 60.535 267.465 60.5459 267.479 60.5597L268.102 61.2102C268.116 61.224 268.127 61.2403 268.135 61.2584C268.142 61.2764 268.146 61.2957 268.146 61.3152C268.146 61.3347 268.142 61.3541 268.135 61.3721C268.127 61.3901 268.116 61.4064 268.102 61.4202C268.076 61.4465 268.04 61.4614 268.002 61.4616V61.4675ZM266.34 59.7287C266.32 59.7288 266.3 59.7247 266.282 59.7165C266.263 59.7083 266.247 59.6964 266.234 59.6814L265.61 59.0309C265.596 59.0167 265.586 59 265.579 58.9818C265.572 58.9636 265.569 58.9441 265.569 58.9246C265.57 58.9051 265.574 58.886 265.582 58.8682C265.59 58.8503 265.601 58.8343 265.616 58.8209C265.63 58.8075 265.646 58.797 265.665 58.7901C265.683 58.7831 265.702 58.7798 265.722 58.7804C265.741 58.7809 265.76 58.7853 265.778 58.7933C265.796 58.8012 265.812 58.8126 265.825 58.8268L266.446 59.4774C266.46 59.4911 266.471 59.5075 266.479 59.5255C266.486 59.5435 266.49 59.5628 266.49 59.5823C266.49 59.6019 266.486 59.6212 266.479 59.6392C266.471 59.6572 266.46 59.6736 266.446 59.6873C266.417 59.7121 266.379 59.7248 266.34 59.7228V59.7287ZM264.681 57.9899C264.661 57.9903 264.64 57.9862 264.621 57.9781C264.602 57.9699 264.586 57.9578 264.572 57.9426L263.951 57.2921C263.936 57.2785 263.923 57.2619 263.915 57.2434C263.907 57.2249 263.902 57.2048 263.902 57.1845C263.901 57.1641 263.905 57.144 263.913 57.1252C263.921 57.1064 263.933 57.0895 263.947 57.0754C263.962 57.0613 263.979 57.0504 263.998 57.0434C264.018 57.0364 264.038 57.0334 264.058 57.0345C264.078 57.0357 264.098 57.0411 264.116 57.0503C264.135 57.0595 264.151 57.0723 264.164 57.088L264.788 57.7386C264.801 57.7523 264.812 57.7687 264.82 57.7867C264.827 57.8047 264.831 57.8241 264.831 57.8436C264.831 57.8631 264.827 57.8824 264.82 57.9004C264.812 57.9185 264.801 57.9348 264.788 57.9486C264.758 57.9736 264.72 57.9863 264.681 57.984V57.9899ZM263.019 56.2512C262.979 56.25 262.941 56.233 262.913 56.2039L262.718 55.9998C262.566 55.844 262.433 55.6714 262.321 55.4853C262.311 55.4692 262.303 55.451 262.3 55.432C262.297 55.4129 262.297 55.3934 262.302 55.3745C262.306 55.3557 262.314 55.338 262.326 55.3225C262.337 55.3069 262.352 55.2939 262.369 55.2842C262.385 55.2735 262.403 55.2662 262.423 55.2628C262.442 55.2593 262.462 55.2598 262.481 55.2643C262.5 55.2687 262.518 55.2769 262.534 55.2885C262.549 55.3 262.563 55.3147 262.573 55.3315C262.676 55.4985 262.797 55.6541 262.933 55.7958L263.126 55.9998C263.14 56.0136 263.151 56.0299 263.158 56.0479C263.166 56.066 263.169 56.0853 263.169 56.1048C263.169 56.1243 263.166 56.1436 263.158 56.1617C263.151 56.1797 263.14 56.196 263.126 56.2098C263.111 56.2225 263.094 56.2322 263.076 56.2383C263.058 56.2443 263.038 56.2467 263.019 56.2453V56.2512ZM262.07 54.125C262.031 54.125 261.993 54.1094 261.965 54.0817C261.938 54.054 261.922 54.0164 261.922 53.9772V53.09C261.922 53.0508 261.938 53.0132 261.965 52.9855C261.993 52.9578 262.031 52.9422 262.07 52.9422C262.109 52.9422 262.147 52.9578 262.175 52.9855C262.202 53.0132 262.218 53.0508 262.218 53.09V53.9772C262.216 54.0154 262.2 54.0515 262.172 54.0779C262.145 54.1044 262.108 54.1191 262.07 54.1191V54.125ZM262.07 51.7209C262.031 51.7202 261.994 51.7043 261.966 51.6768C261.939 51.6492 261.923 51.612 261.922 51.5731V50.6711C261.922 50.6319 261.938 50.5943 261.965 50.5666C261.993 50.5389 262.031 50.5233 262.07 50.5233C262.109 50.5233 262.147 50.5389 262.175 50.5666C262.202 50.5943 262.218 50.6319 262.218 50.6711V51.5731C262.216 51.6112 262.2 51.6473 262.172 51.6738C262.145 51.7003 262.108 51.715 262.07 51.715V51.7209ZM262.07 49.3138C262.031 49.3138 261.993 49.2983 261.965 49.2705C261.938 49.2428 261.922 49.2052 261.922 49.166V48.2641C261.923 48.2251 261.939 48.1879 261.966 48.1604C261.994 48.1328 262.031 48.117 262.07 48.1162C262.109 48.1162 262.147 48.1318 262.175 48.1595C262.202 48.1872 262.218 48.2248 262.218 48.2641V49.166C262.216 49.2042 262.2 49.2403 262.172 49.2667C262.145 49.2932 262.108 49.3079 262.07 49.3079V49.3138ZM262.07 46.9097C262.031 46.9097 261.993 46.8941 261.965 46.8664C261.938 46.8387 261.922 46.8011 261.922 46.7619V45.8599C261.923 45.821 261.939 45.7838 261.966 45.7562C261.994 45.7287 262.031 45.7128 262.07 45.7121C262.109 45.7121 262.147 45.7277 262.175 45.7554C262.202 45.7831 262.218 45.8207 262.218 45.8599V46.7619C262.216 46.8 262.2 46.8361 262.172 46.8626C262.145 46.8891 262.108 46.9038 262.07 46.9038V46.9097ZM262.07 44.5056C262.031 44.5056 261.993 44.49 261.965 44.4623C261.938 44.4346 261.922 44.397 261.922 44.3577V43.4558C261.922 43.4166 261.938 43.379 261.965 43.3513C261.993 43.3235 262.031 43.308 262.07 43.308C262.109 43.308 262.147 43.3235 262.175 43.3513C262.202 43.379 262.218 43.4166 262.218 43.4558V44.3577C262.216 44.3959 262.2 44.432 262.172 44.4585C262.145 44.4849 262.108 44.4997 262.07 44.4997V44.5056ZM262.07 42.1015C262.031 42.1007 261.994 42.0849 261.966 42.0573C261.939 42.0298 261.923 41.9926 261.922 41.9536V41.0517C261.922 41.0125 261.938 40.9749 261.965 40.9472C261.993 40.9194 262.031 40.9038 262.07 40.9038C262.109 40.9038 262.147 40.9194 262.175 40.9472C262.202 40.9749 262.218 41.0125 262.218 41.0517V41.9536C262.216 41.9918 262.2 42.0279 262.172 42.0544C262.145 42.0808 262.108 42.0956 262.07 42.0956V42.1015ZM262.07 39.6944C262.031 39.6944 261.993 39.6788 261.965 39.6511C261.938 39.6234 261.922 39.5857 261.922 39.5465V38.6446C261.923 38.6056 261.939 38.5685 261.966 38.5409C261.994 38.5134 262.031 38.4975 262.07 38.4968C262.109 38.4968 262.147 38.5124 262.175 38.5401C262.202 38.5678 262.218 38.6054 262.218 38.6446V39.5495C262.216 39.5872 262.199 39.6225 262.172 39.6484C262.144 39.6742 262.108 39.6885 262.07 39.6885V39.6944ZM262.07 37.2903C262.031 37.2903 261.993 37.2747 261.965 37.247C261.938 37.2192 261.922 37.1816 261.922 37.1424V36.2405C261.923 36.2015 261.939 36.1644 261.966 36.1368C261.994 36.1092 262.031 36.0934 262.07 36.0926C262.109 36.0926 262.147 36.1082 262.175 36.136C262.202 36.1637 262.218 36.2013 262.218 36.2405V37.1424C262.216 37.1806 262.2 37.2167 262.172 37.2432C262.145 37.2696 262.108 37.2844 262.07 37.2844V37.2903ZM262.07 34.8862C262.031 34.8862 261.993 34.8706 261.965 34.8428C261.938 34.8151 261.922 34.7775 261.922 34.7383V33.8364C261.922 33.7972 261.938 33.7596 261.965 33.7318C261.993 33.7041 262.031 33.6885 262.07 33.6885C262.109 33.6885 262.147 33.7041 262.175 33.7318C262.202 33.7596 262.218 33.7972 262.218 33.8364V34.7383C262.216 34.7765 262.2 34.8126 262.172 34.839C262.145 34.8655 262.108 34.8803 262.07 34.8802V34.8862ZM262.07 32.482C262.031 32.4813 261.994 32.4655 261.966 32.4379C261.939 32.4103 261.923 32.3732 261.922 32.3342V31.4323C261.922 31.3931 261.938 31.3554 261.965 31.3277C261.993 31.3 262.031 31.2844 262.07 31.2844C262.109 31.2844 262.147 31.3 262.175 31.3277C262.202 31.3554 262.218 31.3931 262.218 31.4323V32.3342C262.216 32.3724 262.2 32.4085 262.172 32.4349C262.145 32.4614 262.108 32.4762 262.07 32.4761V32.482ZM262.07 30.075C262.031 30.075 261.993 30.0594 261.965 30.0317C261.938 30.0039 261.922 29.9663 261.922 29.9271V29.0252C261.923 28.9862 261.939 28.949 261.966 28.9215C261.994 28.8939 262.031 28.8781 262.07 28.8773C262.109 28.8773 262.147 28.8929 262.175 28.9206C262.202 28.9484 262.218 28.986 262.218 29.0252V29.9271C262.216 29.9653 262.2 30.0014 262.172 30.0278C262.145 30.0543 262.108 30.0691 262.07 30.069V30.075ZM262.07 27.6708C262.031 27.6708 261.993 27.6553 261.965 27.6275C261.938 27.5998 261.922 27.5622 261.922 27.523V26.6211C261.923 26.5821 261.939 26.5449 261.966 26.5174C261.994 26.4898 262.031 26.474 262.07 26.4732C262.109 26.4732 262.147 26.4888 262.175 26.5165C262.202 26.5442 262.218 26.5819 262.218 26.6211V27.523C262.216 27.5612 262.2 27.5973 262.172 27.6237C262.145 27.6502 262.108 27.665 262.07 27.6649V27.6708ZM262.07 25.2667C262.031 25.2667 261.993 25.2511 261.965 25.2234C261.938 25.1957 261.922 25.1581 261.922 25.1189V24.2169C261.922 24.1777 261.938 24.1401 261.965 24.1124C261.993 24.0847 262.031 24.0691 262.07 24.0691C262.109 24.0691 262.147 24.0847 262.175 24.1124C262.202 24.1401 262.218 24.1777 262.218 24.2169V25.1189C262.216 25.157 262.2 25.1931 262.172 25.2196C262.145 25.2461 262.108 25.2608 262.07 25.2608V25.2667Z" fill="#455A64"/>
<path d="M293.072 48.9417L291.064 50.1038C291.24 50.5203 291.341 50.9649 291.36 51.4167V87.2804C291.36 87.656 291.262 87.8955 291.103 87.9901L293.078 86.8487C293.241 86.757 293.338 86.5145 293.338 86.139V50.2753C293.334 49.818 293.243 49.3657 293.072 48.9417Z" fill="#263238"/>
<path d="M286.046 63.8244C286.014 62.772 285.636 61.7595 284.97 60.9442C284.378 60.3232 283.893 60.6012 283.893 61.5682C283.925 62.6198 284.303 63.6315 284.97 64.4454C285.564 65.0694 286.046 64.7914 286.046 63.8244Z" fill="#FAFAFA"/>
<path d="M313.565 50.7717L318.548 53.649L313.565 56.5262V50.7717Z" fill="#37474F"/>
<path d="M317.347 54.335L318.468 53.6874C318.622 53.635 318.756 53.5355 318.851 53.4029C318.946 53.2703 318.998 53.1113 318.998 52.9481C318.998 52.785 318.946 52.626 318.851 52.4934C318.756 52.3608 318.622 52.2613 318.468 52.2089L313.565 49.376V50.7865L316.986 52.7618C317.022 52.7833 317.052 52.8138 317.073 52.8504C317.094 52.8869 317.105 52.9283 317.105 52.9703C317.105 53.0124 317.094 53.0537 317.073 53.0903C317.052 53.1268 317.022 53.1573 316.986 53.1788L316.146 53.6638L317.347 54.335Z" fill="#455A64"/>
<path d="M310.297 57.0261C308.884 57.8422 307.736 59.7466 307.736 61.2784C307.736 62.0176 308.006 62.5351 308.44 62.7806C308.875 63.026 309.656 63.4814 309.656 63.4814L317.267 58.549C317.413 58.4852 317.54 58.3831 317.633 58.2536C317.726 58.124 317.783 57.9716 317.796 57.8127V52.2651C317.783 52.4247 317.727 52.5776 317.634 52.7077C317.541 52.8379 317.414 52.9404 317.267 53.0044L310.297 57.0261Z" fill="#455A64"/>
<path d="M311.501 57.718C310.084 58.5341 308.94 60.4385 308.94 61.9703C308.94 63.502 310.084 64.0816 311.501 63.2655L318.468 59.2409C318.613 59.176 318.739 59.0737 318.833 58.9443C318.926 58.815 318.984 58.6633 319 58.5045V52.957C318.986 53.1169 318.93 53.27 318.836 53.4002C318.742 53.5304 318.615 53.6327 318.468 53.6963L311.501 57.718Z" fill="#37474F"/>
<path d="M311.933 58.5491C312.746 58.0789 313.411 58.4603 313.411 59.3977C313.381 59.9091 313.232 60.4064 312.975 60.8497C312.719 61.2929 312.361 61.6697 311.933 61.9497C311.119 62.4199 310.454 62.0384 310.454 61.0981C310.482 60.5868 310.631 60.0895 310.888 59.6465C311.145 59.2036 311.503 58.8276 311.933 58.5491Z" fill="#FAFAFA"/>
<path d="M292.312 47.729L262.933 16.9545C262.66 16.675 262.453 16.3374 262.327 15.9668L261.328 18.4862L290.325 48.8704C290.645 49.2325 290.896 49.6505 291.064 50.1035L293.072 48.9414C292.901 48.4914 292.642 48.0795 292.312 47.729Z" fill="#455A64"/>
</g>
<defs>
<linearGradient id="paint0_linear_3889_1848" x1="334" y1="2.07909e-05" x2="-1.74277" y2="84.8486" gradientUnits="userSpaceOnUse">
<stop stop-color="#585E69"/>
<stop offset="1" stop-color="#2A2F38"/>
</linearGradient>
<linearGradient id="paint1_linear_3889_1848" x1="56.2174" y1="40.7826" x2="23.5" y2="126" gradientUnits="userSpaceOnUse">
<stop stop-color="white" stop-opacity="0.14"/>
<stop offset="1" stop-color="white" stop-opacity="0"/>
</linearGradient>
<linearGradient id="paint2_linear_3889_1848" x1="350.217" y1="-9.21739" x2="317.5" y2="76" gradientUnits="userSpaceOnUse">
<stop stop-color="white" stop-opacity="0.14"/>
<stop offset="1" stop-color="white" stop-opacity="0"/>
</linearGradient>
</defs>
</svg>
